<svg width="70" height="70" xmlns="http://www.w3.org/2000/svg">
 <!-- Created with Method Draw - http://github.com/duopixel/Method-Draw/ -->

 <g>
  <title>background</title>
  <rect fill="none" id="canvas_background" height="72" width="72" y="-1" x="-1"/>
 </g>
 <g>
  <title>Layer 1</title>
  <g stroke="null" id="svg_59">
   <path stroke="null" id="svg_35" fill="#FB7710" d="m34.89777,47.67365c0,6.96855 5.60428,12.58213 12.56129,12.58213c6.9571,0 12.56139,-5.61358 12.56139,-12.58213c0,-6.96855 -5.60428,-12.58213 -12.56139,-12.58213c-6.957,0 -12.56129,5.61358 -12.56129,12.58213zm1.93253,0c0,-5.51677 4.25146,-10.06572 9.66255,-10.54968l0,10.16254l-7.15031,7.16217c-1.54602,-1.83892 -2.51224,-4.16181 -2.51224,-6.77502zm11.59507,-10.6465l0,9.67868l7.73002,0l0,1.93564l-8.30982,0l-7.15031,7.16217c1.83588,1.54859 4.15491,2.51651 6.7638,2.51651c5.89414,0 10.62886,-4.74258 10.62886,-10.6465c0,-5.51677 -4.25156,-10.06572 -9.66255,-10.6465z" clip-rule="evenodd" fill-rule="evenodd"/>
   <rect stroke="null" transform="matrix(0.9984650227446363,0,0,1.0001216784473974,42.47107148112659,45.30307879996468) " id="svg_36" fill="#FB7710" height="1.93548" width="35.8064" y="-21.82332" x="-27.90775"/>
   <rect stroke="null" transform="matrix(0.9984650227446363,0,0,1.0001216784473974,42.47107148112659,45.30307879996468) " id="svg_37" fill="#FB7710" height="1.93548" width="23.2258" y="-17.95232" x="-27.90775"/>
   <path stroke="null" id="svg_38" fill="#FB7710" d="m11.03096,23.76754l-3.18869,3.19399l-1.25614,-1.25825l-1.35275,1.35506l2.60889,2.61322l4.54141,-4.54895l-1.35272,-1.35506z"/>
   <rect stroke="null" transform="matrix(0.9984650227446363,0,0,1.0001216784473974,42.47107148112659,45.30307879996468) " id="svg_39" fill="#FB7710" height="1.93548" width="8.70968" y="-17.95232" x="-2.74665"/>
   <rect stroke="null" transform="matrix(0.9984650227446363,0,0,1.0001216784473974,42.47107148112659,45.30307879996468) " id="svg_40" fill="#FB7710" height="1.93548" width="19.3548" y="-29.56522" x="-27.90775"/>
   <rect stroke="null" transform="matrix(0.9984650227446363,0,0,1.0001216784473974,42.47107148112659,45.30307879996468) " id="svg_41" fill="#FB7710" height="1.93548" width="14.5161" y="-29.56522" x="-6.61725"/>
   <rect stroke="null" transform="matrix(0.9984650227446363,0,0,1.0001216784473974,42.47107148112659,45.30307879996468) " id="svg_42" fill="#FB7710" height="1.93548" width="6.77419" y="-25.69425" x="-27.90775"/>
   <path stroke="null" id="svg_43" fill="#FB7710" d="m11.03096,16.0247l-3.18869,3.19394l-1.25614,-1.25821l-1.35275,1.35499l2.60889,2.6132l4.54141,-4.54891l-1.35272,-1.355z"/>
   <rect stroke="null" transform="matrix(0.9984650227446363,0,0,1.0001216784473974,42.47107148112659,45.30307879996468) " id="svg_44" fill="#FB7710" height="1.93548" width="3.87097" y="-25.69425" x="0.15675"/>
   <rect stroke="null" transform="matrix(0.9984650227446363,0,0,1.0001216784473974,42.47107148112659,45.30307879996468) " id="svg_45" fill="#FB7710" height="1.93548" width="17.4194" y="-25.69425" x="-19.19825"/>
   <rect stroke="null" transform="matrix(0.9984650227446363,0,0,1.0001216784473974,42.47107148112659,45.30307879996468) " id="svg_46" fill="#FB7710" height="1.93548" width="11.6129" y="-14.08132" x="-27.90775"/>
   <rect stroke="null" transform="matrix(0.9984650227446363,0,0,1.0001216784473974,42.47107148112659,45.30307879996468) " id="svg_47" fill="#FB7710" height="1.93548" width="22.2581" y="-14.08132" x="-14.35935"/>
   <rect stroke="null" transform="matrix(0.9984650227446363,0,0,1.0001216784473974,42.47107148112659,45.30307879996468) " id="svg_48" fill="#FB7710" height="1.93548" width="15.4839" y="-10.21032" x="-27.90775"/>
   <path stroke="null" id="svg_49" fill="#FB7710" d="m5.91007,31.22005l5.79755,0l0,5.80711l-5.79755,0l0,-5.80711zm1.93251,3.87147l1.93252,0l0,-1.93574l-1.93252,0l0,1.93574z" clip-rule="evenodd" fill-rule="evenodd"/>
   <rect stroke="null" transform="matrix(0.9984650227446363,0,0,1.0001216784473974,42.47107148112659,45.30307879996468) " id="svg_50" fill="#FB7710" height="1.93548" width="18.3871" y="-6.33942" x="-27.90775"/>
   <rect stroke="null" transform="matrix(0.9984650227446363,0,0,1.0001216784473974,42.47107148112659,45.30307879996468) " id="svg_51" fill="#FB7710" height="1.93548" width="6.77419" y="-2.46842" x="-27.90775"/>
   <path stroke="null" id="svg_52" fill="#FB7710" d="m11.70762,44.77009l-5.79755,0l0,-5.80721l5.79755,0l0,5.80721zm-1.93252,-3.87147l-1.93252,0l0,1.93574l1.93252,0l0,-1.93574z" clip-rule="evenodd" fill-rule="evenodd"/>
   <rect stroke="null" transform="matrix(0.9984650227446363,0,0,1.0001216784473974,42.47107148112659,45.30307879996468) " id="svg_53" fill="#FB7710" height="1.93548" width="9.67742" y="-2.46842" x="-19.19825"/>
   <path stroke="null" id="svg_54" fill="#FB7710" d="m51.51722,62.19161l5.60428,2.22607l0,0.67748l2.89874,0l0,1.93574l-2.89874,0l0,0.67748l-5.60428,2.22607l-47.53985,0l0,-0.96792l-1.93252,0c-0.48313,0 -0.96625,-0.19352 -1.35275,-0.58067c-0.38651,-0.38715 -0.57976,-0.87111 -0.57976,-1.35496l0,-1.93574c0,-0.48396 0.19325,-0.96792 0.57976,-1.35506c0.3865,-0.38715 0.86962,-0.58067 1.35275,-0.58067l1.93252,0l0,-0.96782l3.86503,0l0,-0.96792c0,-0.77429 0.3865,-1.45178 0.86962,-2.03245c0.48313,-0.58077 1.25614,-0.87111 2.02918,-0.87111l18.35888,0l0,1.93574l-18.35888,0c-0.28995,0 -0.48316,0.09671 -0.67642,0.29034c-0.19325,0.19352 -0.28987,0.38715 -0.28987,0.67748l0,0.96792l41.74231,0zm-49.47236,4.83929l1.93252,0l0,-1.93574l-1.93252,0l0,1.93574zm5.79755,0.96782l-1.93252,0l0,-3.87147l1.93252,0l0,3.87147zm1.93251,0l32.85267,0l0,-3.87147l-32.85267,0l0,3.87147zm36.71773,0l-1.93253,0l0,-3.87147l1.93253,0l0,3.87147zm4.63807,0l4.05826,-1.6454l0,-0.58067l-4.05826,-1.6454l-2.70554,0l0,3.87147l2.70554,0z" clip-rule="evenodd" fill-rule="evenodd"/>
   <rect stroke="null" transform="matrix(0.9984650227446363,0,0,1.0001216784473974,42.47107148112659,45.30307879996468) " id="svg_55" fill="#FB7710" height="1.93548" width="1.93548" y="3.33808" x="-11.45605"/>
   <rect stroke="null" transform="matrix(0.9984650227446363,0,0,1.0001216784473974,42.47107148112659,45.30307879996468) " id="svg_56" fill="#FB7710" height="1.93548" width="1.93548" y="3.33808" x="-15.32715"/>
   <rect stroke="null" transform="matrix(0.9984650227446363,0,0,1.0001216784473974,42.47107148112659,45.30307879996468) " id="svg_57" fill="#FB7710" height="1.93548" width="1.93548" y="3.33808" x="-19.19825"/>
   <path stroke="null" id="svg_58" fill="#FB7710" d="m3.97737,52.51294l0,2.90365c0,0.38715 0.19325,0.77429 0.57975,0.87101c0.09663,0.09681 0.28988,0.09681 0.38651,0.09681c0.28987,0 0.48313,-0.09681 0.67638,-0.29034l5.5077,-5.51677l10.24225,0l0,-1.93574l-10.62876,0c-0.28995,0 -0.48316,0.09671 -0.67642,0.29034l-4.1549,4.16181l0,-0.58077l0,-3.87137l-3.86503,0l0,-36.77869l52.1779,0l0,21.29291l1.93243,0l0,-23.22863l-56.04284,0l0,40.65015l3.86503,0l0,1.93564z"/>
  </g>
  <g stroke="null" id="svg_88">
   <g stroke="null" transform="matrix(0.999835532761037,0,0,0.9947508326132012,20.184433051268627,20.109977810862176) " id="svg_63" opacity="0.26">
    <path stroke="null" id="svg_64" fill="#FB7710" d="m24.60148,17.6212c0,6.9677 5.6129,12.5806 12.5806,12.5806c6.9678,0 12.5807,-5.6129 12.5807,-12.5806c0,-6.9677 -5.6129,-12.5806 -12.5807,-12.5806c-6.9677,0 -12.5806,5.6129 -12.5806,12.5806zm1.9355,0c0,-5.5161 4.258,-10.0645 9.6774,-10.5484l0,10.1613l-7.1613,7.1613c-1.5484,-1.8387 -2.5161,-4.1613 -2.5161,-6.7742zm11.6129,-10.6452l0,9.6775l7.7419,0l0,1.9354l-8.3226,0l-7.1613,7.1613c1.8387,1.5484 4.1613,2.5162 6.7742,2.5162c5.9032,0 10.6452,-4.742 10.6452,-10.6452c0,-5.5161 -4.2581,-10.0645 -9.6774,-10.6452z" clip-rule="evenodd" fill-rule="evenodd"/>
    <rect stroke="null" id="svg_65" fill="#FB7710" height="1.93548" width="35.8064" y="-6.5724" x="4.27868"/>
    <rect stroke="null" id="svg_66" fill="#FB7710" height="1.93548" width="23.2258" y="-2.7014" x="4.27868"/>
    <path stroke="null" id="svg_67" fill="#FB7710" d="m0.69798,-6.282l-3.19359,3.1936l-1.25807,-1.2581l-1.35483,1.3549l2.6129,2.6129l4.54839,-4.5484l-1.3548,-1.3549z"/>
    <rect stroke="null" id="svg_68" fill="#FB7710" height="1.93548" width="8.70968" y="-2.7014" x="29.43978"/>
    <rect stroke="null" id="svg_69" fill="#FB7710" height="1.93548" width="19.3548" y="-14.3143" x="4.27868"/>
    <rect stroke="null" id="svg_70" fill="#FB7710" height="1.93548" width="14.5161" y="-14.3143" x="25.56918"/>
    <rect stroke="null" id="svg_71" fill="#FB7710" height="1.93548" width="6.77419" y="-10.44333" x="4.27868"/>
    <path stroke="null" id="svg_72" fill="#FB7710" d="m0.69798,-14.0239l-3.19359,3.19355l-1.25807,-1.25806l-1.35483,1.35483l2.6129,2.61288l4.54839,-4.54836l-1.3548,-1.35484z"/>
    <rect stroke="null" id="svg_73" fill="#FB7710" height="1.93548" width="3.87097" y="-10.44333" x="32.34318"/>
    <rect stroke="null" id="svg_74" fill="#FB7710" height="1.93548" width="17.4194" y="-10.44333" x="12.98818"/>
    <rect stroke="null" id="svg_75" fill="#FB7710" height="1.93548" width="11.6129" y="1.1696" x="4.27868"/>
    <rect stroke="null" id="svg_76" fill="#FB7710" height="1.93548" width="22.2581" y="1.1696" x="17.82708"/>
    <rect stroke="null" id="svg_77" fill="#FB7710" height="1.93548" width="15.4839" y="5.0406" x="4.27868"/>
    <path stroke="null" id="svg_78" fill="#FB7710" d="m-4.43078,1.1696l5.80646,0l0,5.8064l-5.80646,0l0,-5.8064zm1.93548,3.871l1.93549,0l0,-1.9355l-1.93549,0l0,1.9355z" clip-rule="evenodd" fill-rule="evenodd"/>
    <rect stroke="null" id="svg_79" fill="#FB7710" height="1.93548" width="18.3871" y="8.9115" x="4.27868"/>
    <rect stroke="null" id="svg_80" fill="#FB7710" height="1.93548" width="6.77419" y="12.7825" x="4.27868"/>
    <path stroke="null" id="svg_81" fill="#FB7710" d="m1.37568,14.718l-5.80646,0l0,-5.8065l5.80646,0l0,5.8065zm-1.93549,-3.871l-1.93549,0l0,1.9355l1.93549,0l0,-1.9355z" clip-rule="evenodd" fill-rule="evenodd"/>
    <rect stroke="null" id="svg_82" fill="#FB7710" height="1.93548" width="9.67742" y="12.7825" x="12.98818"/>
    <path stroke="null" id="svg_83" fill="#FB7710" d="m41.24648,32.1374l5.6129,2.2258l0,0.6774l2.9032,0l0,1.9355l-2.9032,0l0,0.6774l-5.6129,2.2258l-47.61293,0l0,-0.9678l-1.93549,0c-0.48387,0 -0.96774,-0.1935 -1.35483,-0.5806c-0.3871,-0.3871 -0.58065,-0.871 -0.58065,-1.3548l0,-1.9355c0,-0.4839 0.19355,-0.9678 0.58065,-1.3549c0.38709,-0.3871 0.87096,-0.5806 1.35483,-0.5806l1.93549,0l0,-0.9677l3.87097,0l0,-0.9678c0,-0.7742 0.38709,-1.4516 0.87096,-2.0322c0.48387,-0.5807 1.25807,-0.871 2.0323,-0.871l18.3871,0l0,1.9355l-18.3871,0c-0.2904,0 -0.4839,0.0967 -0.67746,0.2903c-0.19355,0.1935 -0.29032,0.3871 -0.29032,0.6774l0,0.9678l41.80648,0zm-49.54842,4.8387l1.93549,0l0,-1.9355l-1.93549,0l0,1.9355zm5.80646,0.9677l-1.93549,0l0,-3.871l1.93549,0l0,3.871zm1.93548,0l32.90318,0l0,-3.871l-32.90318,0l0,3.871zm36.77418,0l-1.9355,0l0,-3.871l1.9355,0l0,3.871zm4.6452,0l4.0645,-1.6452l0,-0.5806l-4.0645,-1.6452l-2.7097,0l0,3.871l2.7097,0z" clip-rule="evenodd" fill-rule="evenodd"/>
    <rect stroke="null" id="svg_84" fill="#FB7710" height="1.93548" width="1.93548" y="18.589" x="20.73038"/>
    <rect stroke="null" id="svg_85" fill="#FB7710" height="1.93548" width="1.93548" y="18.589" x="16.85928"/>
    <rect stroke="null" id="svg_86" fill="#FB7710" height="1.93548" width="1.93548" y="18.589" x="12.98818"/>
    <path stroke="null" id="svg_87" fill="#FB7710" d="m-6.36645,22.4599l0,2.9033c0,0.3871 0.19355,0.7742 0.58064,0.8709c0.09678,0.0968 0.29033,0.0968 0.3871,0.0968c0.29032,0 0.48387,-0.0968 0.67742,-0.2903l5.51617,-5.5161l10.258,0l0,-1.9355l-10.6451,0c-0.2904,0 -0.4839,0.0967 -0.67746,0.2903l-4.16129,4.1613l0,-0.5807l0,-3.8709l-3.87097,0l0,-36.77422l52.25812,0l0,21.29032l1.9354,0l0,-23.2258l-56.129,0l0,40.6452l3.87097,0l0,1.9354z"/>
   </g>
  </g>
 </g>
</svg>