<svg width="70" height="62" viewBox="0 0 70 62" fill="none" xmlns="http://www.w3.org/2000/svg">
<g opacity="0.26">
<path fill-rule="evenodd" clip-rule="evenodd" d="M70 49.1697V49.1701V51.1403H59.8859H59.8853H34.2188H34.2184H13.2727V51.1413H10V49.1705H12.2908V46.7605H10V44.7894H12.2908V42.382H10V40.4113H12.2908V38.0012H10V36.0301H12.2908V33.6227H10V31.652H12.2908V29.2419H10V27.2708H12.2908V24.8604H10V22.8896H12.2908V20.4819H10V18.5112H12.2908V16.1011H10V14.1304H12.2908V11.7224H10V9.75166H12.2908V7.34183H10V5.37108H12.2908V2.96313H10V0.992027H12.2907H13.2726H14.2545V49.0115C17.2738 47.9901 18.2356 42.1949 19.0929 37.026L19.0932 37.0244C19.9617 31.7912 20.7118 27.2709 23.7454 27.2709C26.0314 27.2709 27.0208 29.8372 27.7411 33.3407C28.5749 29.5375 29.2117 25.4331 29.8233 21.4881L29.8234 21.4874V21.4874C31.5268 10.5004 32.9978 1.01249 38.3641 1.01249C43.7306 1.01249 45.2015 10.5 46.9048 21.4867L46.905 21.4881C47.1018 22.7568 47.3011 24.0422 47.5087 25.3288C48.6345 19.0051 50.0193 14.1313 53.5927 14.1313C57.8777 14.1313 59.0158 21.1372 60.3334 29.2494L60.334 29.2528C61.851 38.5888 63.5702 49.1697 70 49.1697ZM23.7457 29.2417C22.3754 29.2417 21.6295 33.7373 21.0304 37.3497C20.3017 41.7413 19.5064 46.5302 17.3568 49.1501C21.9734 48.8308 24.7074 44.2056 26.5646 37.9674C26.5301 37.7608 26.4959 37.5548 26.4619 37.3497L26.4617 37.3487C25.8621 33.7365 25.116 29.2417 23.7457 29.2417ZM27.2849 41.8967C27.8954 44.7774 28.7275 47.4477 30.1513 49.1701H22.4788C24.5138 47.5377 26.061 44.9887 27.2849 41.8967ZM34.2184 49.1697V49.1701H37.1854V49.1697C43.1779 49.1697 45.0788 39.9789 46.5377 31.1709C45.9405 28.0838 45.445 24.8909 44.9644 21.7908C43.531 12.5442 42.0484 2.98336 38.3638 2.98336C34.6795 2.98336 33.1969 12.5446 31.7635 21.7908C30.9099 27.2975 30.01 33.0974 28.5733 38.0746C29.4836 43.4811 30.6448 49.1697 34.2184 49.1697ZM42.2072 49.1701C45.0562 46.529 46.5623 41.5458 47.6375 36.1614C49.0643 41.7913 51.0565 46.6089 54.2493 49.1701H42.2072ZM48.79 29.5665C48.705 30.0897 48.6193 30.6167 48.5323 31.1454C50.4289 40.8156 53.3371 49.1698 59.8858 49.1697V49.1701H64.9782C60.9781 45.4619 59.6252 37.1363 58.3954 29.5665L58.3953 29.5659C57.3201 22.9468 56.2084 16.1024 53.5927 16.1024C50.977 16.1024 49.8652 22.9469 48.79 29.5665Z" fill="#FB7710"/>
<rect x="25.2241" y="5.46964" width="2.68657" height="1.79104" fill="#FB7710"/>
<rect x="20.7461" y="5.46964" width="2.68657" height="1.79104" fill="#FB7710"/>
<rect x="16.2686" y="5.46964" width="2.68657" height="1.79104" fill="#FB7710"/>
<rect x="16.2686" y="9.94725" width="10.7463" height="1.79104" fill="#FB7710"/>
<rect x="16.2686" y="14.4249" width="6.26866" height="1.79104" fill="#FB7710"/>
</g>
<path fill-rule="evenodd" clip-rule="evenodd" d="M60 59.1697V59.1701V61.1403H49.8859H49.8853H24.2188H24.2184H3.2727V61.1413H0V59.1705H2.29078V56.7605H0V54.7894H2.29078V52.382H0V50.4112H2.29078V48.0012H0V46.0301H2.29078V43.6227H0V41.652H2.29078V39.2419H0V37.2708H2.29078V34.8604H0V32.8896H2.29078V30.4819H0V28.5112H2.29078V26.1011H0V24.1304H2.29078V21.7224H0V19.7517H2.29078V17.3418H0V15.3711H2.29078V12.9631H0V10.992H2.29066H3.27258H4.25449V59.0115C7.27383 57.9901 8.23559 52.1949 9.09293 47.026L9.09319 47.0244C9.96167 41.7912 10.7118 37.2709 13.7454 37.2709C16.0314 37.2709 17.0208 39.8372 17.7411 43.3407C18.5749 39.5375 19.2117 35.4331 19.8233 31.4881L19.8234 31.4874V31.4874C21.5268 20.5004 22.9978 11.0125 28.3641 11.0125C33.7306 11.0125 35.2015 20.5 36.9048 31.4867L36.905 31.4881C37.1018 32.7568 37.3011 34.0422 37.5087 35.3288C38.6345 29.0051 40.0193 24.1313 43.5927 24.1313C47.8777 24.1313 49.0158 31.1372 50.3334 39.2494L50.334 39.2528C51.851 48.5888 53.5702 59.1697 60 59.1697ZM13.7457 39.2417C12.3754 39.2417 11.6295 43.7373 11.0304 47.3497C10.3017 51.7413 9.50637 56.5302 7.3568 59.1501C11.9734 58.8308 14.7074 54.2056 16.5646 47.9674C16.5301 47.7608 16.4959 47.5548 16.4619 47.3497L16.4617 47.3487C15.8621 43.7364 15.116 39.2417 13.7457 39.2417ZM17.2849 51.8967C17.8954 54.7774 18.7275 57.4477 20.1513 59.1701H12.4788C14.5138 57.5377 16.061 54.9887 17.2849 51.8967ZM24.2184 59.1697V59.1701H27.1854V59.1697C33.1779 59.1697 35.0788 49.9789 36.5377 41.1709C35.9405 38.0838 35.445 34.8908 34.9644 31.7908C33.531 22.5442 32.0484 12.9834 28.3638 12.9834C24.6795 12.9834 23.1969 22.5446 21.7635 31.7908C20.9099 37.2975 20.01 43.0974 18.5733 48.0746C19.4836 53.4811 20.6448 59.1697 24.2184 59.1697ZM32.2072 59.1701C35.0562 56.529 36.5623 51.5458 37.6375 46.1613C39.0643 51.7913 41.0565 56.6088 44.2493 59.1701H32.2072ZM38.79 39.5665C38.705 40.0897 38.6193 40.6167 38.5323 41.1454C40.4289 50.8156 43.3371 59.1698 49.8858 59.1697V59.1701H54.9782C50.9781 55.4619 49.6252 47.1363 48.3954 39.5665L48.3953 39.5659C47.3201 32.9468 46.2084 26.1024 43.5927 26.1024C40.977 26.1024 39.8652 32.9469 38.79 39.5665Z" fill="#FB7710"/>
<rect x="15.2241" y="15.4696" width="2.68657" height="1.79104" fill="#FB7710"/>
<rect x="10.7461" y="15.4696" width="2.68657" height="1.79104" fill="#FB7710"/>
<rect x="6.26855" y="15.4696" width="2.68657" height="1.79104" fill="#FB7710"/>
<rect x="6.26855" y="19.9472" width="10.7463" height="1.79104" fill="#FB7710"/>
<rect x="6.26855" y="24.4249" width="6.26866" height="1.79104" fill="#FB7710"/>
</svg>
