<svg width="60" height="65" viewBox="0 0 60 65" fill="none" xmlns="http://www.w3.org/2000/svg">
<g opacity="0.26">
<path fill-rule="evenodd" clip-rule="evenodd" d="M60 50.4984H53.3029C50.7218 52.7017 47.3876 54.0323 43.7509 54.0323C41.231 54.0323 38.7618 53.3841 36.5706 52.1552L34.9998 53.4253L33.429 52.155C31.2379 53.3841 28.7685 54.0323 26.2488 54.0323C22.6121 54.0323 19.2779 52.7017 16.6968 50.4984H10V48.857H15.0497C12.798 46.2329 11.434 42.8125 11.434 39.0767C11.434 33.5885 14.3397 28.6438 19.0623 26.0034L18.4615 24.1062L20.3257 23.4499C20.2328 22.7703 20.1856 22.0858 20.1856 21.4072C20.1856 13.1606 26.8314 6.45166 35 6.45166C43.1689 6.45166 49.8144 13.1608 49.8144 21.4072C49.8142 22.0859 49.767 22.7705 49.674 23.4501L51.538 24.1062L50.9373 26.0036C55.6596 28.6444 58.5655 33.5897 58.5655 39.0767C58.5655 42.8125 57.2014 46.233 54.9498 48.857H60V50.4984ZM53.0264 48.5318C55.4411 46.1174 56.9393 42.7704 56.9393 39.0768C56.9393 34.2885 54.4546 29.9634 50.3964 27.5793C48.925 31.3134 46.1381 34.4193 42.5782 36.2735C42.7345 37.2017 42.8136 38.1422 42.8136 39.0775C42.8136 43.6049 41.0302 47.8592 37.8711 50.991C39.6901 51.9083 41.7016 52.3908 43.7509 52.3908C46.7792 52.3908 49.5718 51.3544 51.8005 49.6154L47.4962 45.2699L48.6459 44.1095L53.0264 48.5318ZM40.7394 35.3613L39.8934 35.659C38.3288 36.21 36.6825 36.4898 34.9998 36.4898C33.3174 36.4898 31.6704 36.2098 30.1053 35.659L29.2598 35.3613L29.263 35.3456L29.249 35.3389L29.5219 34.4773C30.4172 31.6488 32.109 29.1694 34.4142 27.3059L34.9919 26.8386L34.9998 26.8439L35.0077 26.8386L35.5854 27.3059C37.8901 29.1682 39.5813 31.6483 40.4777 34.4773L40.7501 35.3383L40.7359 35.345L40.7394 35.3613ZM26.2485 23.9956C24.566 23.9956 22.9194 24.2747 21.3545 24.826L20.4925 25.1295L20.7702 26.0075C21.9276 29.6608 24.4537 32.7435 27.7754 34.6023L27.9728 33.9782C28.9658 30.8412 30.8419 28.0905 33.3981 26.0246L33.5344 25.9145C31.3074 24.6567 28.8119 23.9956 26.2485 23.9956ZM48.6445 24.826L49.5064 25.1293L49.2288 26.0073C48.0715 29.6605 45.5455 32.743 42.224 34.6012L42.0268 33.9779C41.0324 30.8396 39.1566 28.0895 36.6018 26.0244L36.4653 25.9141C38.6923 24.6564 41.1877 23.9954 43.7507 23.9954C45.4333 23.9956 47.0799 24.275 48.6445 24.826ZM34.1874 14.3269V8.11935C27.2925 8.54465 21.8116 14.3416 21.8114 21.4073C21.8114 21.9157 21.8411 22.428 21.8999 22.9385C23.3083 22.5511 24.7662 22.3543 26.2486 22.3543C29.3519 22.3543 32.3666 23.2263 34.9997 24.8809C37.6331 23.2263 40.6474 22.3543 43.7508 22.3543C45.2339 22.3543 46.6919 22.551 48.1 22.9386C48.1588 22.428 48.1885 21.9159 48.1885 21.4073C48.1885 14.3413 42.7072 8.54433 35.8122 8.11924V14.3269H34.1874ZM26.2485 52.3906C23.2203 52.3906 20.4278 51.3542 18.1992 49.6154L22.5033 45.2699L21.3536 44.1095L16.9731 48.5315C14.5583 46.1171 13.0602 42.7701 13.0602 39.0765C13.0602 34.2881 15.5448 29.9627 19.6034 27.5792C21.0746 31.3132 23.8614 34.4191 27.4218 36.2741C27.2655 37.2018 27.1864 38.1423 27.1864 39.0776C27.1864 43.6048 28.9699 47.859 32.1287 50.9908C30.3095 51.9081 28.298 52.3906 26.2485 52.3906ZM34.4134 50.8482L34.9996 51.3219L35.5858 50.8481C39.1451 47.9682 41.1872 43.6783 41.1872 39.0771C41.1872 38.3826 41.1378 37.685 41.042 36.9929L40.4288 37.2087C38.6918 37.8206 36.8656 38.131 34.9999 38.131C33.1349 38.131 31.308 37.8203 29.5701 37.2087L28.9574 36.993C28.8615 37.6853 28.812 38.3828 28.812 39.0772C28.812 43.6781 30.8538 47.9684 34.4134 50.8482Z" fill="#FB7710"/>
<rect x="34.1934" y="43.5483" width="1.6129" height="1.6129" fill="#FB7710"/>
<rect x="26.1289" y="27.4193" width="1.6129" height="1.6129" fill="#FB7710"/>
<rect x="42.2583" y="27.4193" width="1.6129" height="1.6129" fill="#FB7710"/>
<rect x="52.7417" y="52.4193" width="7.25806" height="1.6129" fill="#FB7710"/>
<rect x="10" y="52.4193" width="7.25806" height="1.6129" fill="#FB7710"/>
<rect x="30.9678" y="3.22583" width="7.25806" height="1.6129" fill="#FB7710"/>
<rect x="30.9678" width="7.25806" height="1.6129" fill="#FB7710"/>
</g>
<path fill-rule="evenodd" clip-rule="evenodd" d="M50 60.4984H43.3029C40.7218 62.7017 37.3876 64.0323 33.7509 64.0323C31.231 64.0323 28.7618 63.3841 26.5706 62.1552L24.9998 63.4253L23.429 62.155C21.2379 63.3841 18.7685 64.0323 16.2488 64.0323C12.6121 64.0323 9.27786 62.7017 6.69679 60.4984H0V58.857H5.0497C2.79797 56.2329 1.43398 52.8125 1.43398 49.0767C1.43398 43.5885 4.33965 38.6438 9.06234 36.0034L8.46147 34.1062L10.3257 33.4499C10.2328 32.7703 10.1856 32.0858 10.1856 31.4072C10.1856 23.1606 16.8314 16.4517 25 16.4517C33.1689 16.4517 39.8144 23.1608 39.8144 31.4072C39.8142 32.0859 39.767 32.7705 39.674 33.4501L41.538 34.1062L40.9373 36.0036C45.6596 38.6444 48.5655 43.5897 48.5655 49.0767C48.5655 52.8125 47.2014 56.233 44.9498 58.857H50V60.4984ZM43.0264 58.5318C45.4411 56.1174 46.9393 52.7704 46.9393 49.0768C46.9393 44.2885 44.4546 39.9634 40.3964 37.5793C38.925 41.3134 36.1381 44.4193 32.5782 46.2735C32.7345 47.2017 32.8136 48.1422 32.8136 49.0775C32.8136 53.6049 31.0302 57.8592 27.8711 60.991C29.6901 61.9083 31.7016 62.3908 33.7509 62.3908C36.7792 62.3908 39.5718 61.3544 41.8005 59.6154L37.4962 55.2699L38.6459 54.1095L43.0264 58.5318ZM30.7394 45.3613L29.8934 45.659C28.3288 46.21 26.6825 46.4898 24.9998 46.4898C23.3174 46.4898 21.6704 46.2098 20.1053 45.659L19.2598 45.3613L19.263 45.3456L19.249 45.3389L19.5219 44.4773C20.4172 41.6488 22.109 39.1694 24.4142 37.3059L24.9919 36.8386L24.9998 36.8439L25.0077 36.8386L25.5854 37.3059C27.8901 39.1682 29.5813 41.6483 30.4777 44.4773L30.7501 45.3383L30.7359 45.345L30.7394 45.3613ZM16.2485 33.9956C14.566 33.9956 12.9194 34.2747 11.3545 34.826L10.4925 35.1295L10.7702 36.0075C11.9276 39.6608 14.4537 42.7435 17.7754 44.6023L17.9728 43.9782C18.9658 40.8412 20.8419 38.0905 23.3981 36.0246L23.5344 35.9145C21.3074 34.6567 18.8119 33.9956 16.2485 33.9956ZM38.6445 34.826L39.5064 35.1293L39.2288 36.0073C38.0715 39.6605 35.5455 42.743 32.224 44.6012L32.0268 43.9779C31.0324 40.8396 29.1566 38.0895 26.6018 36.0244L26.4653 35.9141C28.6923 34.6564 31.1877 33.9954 33.7507 33.9954C35.4333 33.9956 37.0799 34.275 38.6445 34.826ZM24.1874 24.3269V18.1193C17.2925 18.5447 11.8116 24.3416 11.8114 31.4073C11.8114 31.9157 11.8411 32.428 11.8999 32.9385C13.3083 32.5511 14.7662 32.3543 16.2486 32.3543C19.3519 32.3543 22.3666 33.2263 24.9997 34.8809C27.6331 33.2263 30.6474 32.3543 33.7508 32.3543C35.2339 32.3543 36.6919 32.551 38.1 32.9386C38.1588 32.428 38.1885 31.9159 38.1885 31.4073C38.1885 24.3413 32.7072 18.5443 25.8122 18.1192V24.3269H24.1874ZM16.2485 62.3906C13.2203 62.3906 10.4278 61.3542 8.19918 59.6154L12.5033 55.2699L11.3536 54.1095L6.97306 58.5315C4.55833 56.1171 3.06015 52.7701 3.06015 49.0765C3.06015 44.2881 5.54476 39.9627 9.60341 37.5792C11.0746 41.3132 13.8614 44.4191 17.4218 46.2741C17.2655 47.2018 17.1864 48.1423 17.1864 49.0776C17.1864 53.6048 18.9699 57.859 22.1287 60.9908C20.3095 61.9081 18.298 62.3906 16.2485 62.3906ZM24.4134 60.8482L24.9996 61.3219L25.5858 60.8481C29.1451 57.9682 31.1872 53.6783 31.1872 49.0771C31.1872 48.3826 31.1378 47.685 31.042 46.9929L30.4288 47.2087C28.6918 47.8206 26.8656 48.131 24.9999 48.131C23.1349 48.131 21.308 47.8203 19.5701 47.2087L18.9574 46.993C18.8615 47.6853 18.812 48.3828 18.812 49.0772C18.812 53.6781 20.8538 57.9684 24.4134 60.8482Z" fill="#FB7710"/>
<rect x="24.1934" y="53.5483" width="1.6129" height="1.6129" fill="#FB7710"/>
<rect x="16.1289" y="37.4193" width="1.6129" height="1.6129" fill="#FB7710"/>
<rect x="32.2583" y="37.4193" width="1.6129" height="1.6129" fill="#FB7710"/>
<rect x="42.7417" y="62.4193" width="7.25806" height="1.6129" fill="#FB7710"/>
<rect y="62.4193" width="7.25806" height="1.6129" fill="#FB7710"/>
<rect x="20.9678" y="13.2258" width="7.25806" height="1.6129" fill="#FB7710"/>
<rect x="20.9678" y="10" width="7.25806" height="1.6129" fill="#FB7710"/>
</svg>
