<svg width="60" height="60" viewBox="0 0 60 60" fill="none" xmlns="http://www.w3.org/2000/svg">
<g opacity="0.26">
<rect x="24.0361" y="18.7136" width="1.56023" height="2.33918" fill="#FB7710"/>
<rect x="27.1548" y="14.8142" width="1.56023" height="6.2386" fill="#FB7710"/>
<rect x="30.2837" y="17.1536" width="1.56023" height="3.89942" fill="#FB7710"/>
<rect x="33.3931" y="14.0354" width="1.56023" height="7.01764" fill="#FB7710"/>
<rect x="36.5117" y="11.696" width="1.56023" height="9.35682" fill="#FB7710"/>
<rect x="39.6318" y="14.8142" width="1.56023" height="6.2386" fill="#FB7710"/>
<rect x="42.75" y="17.1536" width="1.56023" height="3.89942" fill="#FB7710"/>
<rect x="45.8682" y="12.4751" width="1.56023" height="8.57788" fill="#FB7710"/>
<rect x="48.9888" y="15.5955" width="1.56023" height="5.45741" fill="#FB7710"/>
<path fill-rule="evenodd" clip-rule="evenodd" d="M50.5467 5.45752H47.4285H45.8682H19.3579V10.136H45.8682H47.4285H50.5467V5.45752ZM45.8682 8.57799H20.9269V7.01775H45.8793L45.8682 8.57799ZM47.4285 8.57799H48.9887V7.01775H47.4285V8.57799Z" fill="#FB7710"/>
<path d="M56.0064 0H20.137C19.1225 0 18.1102 0.389474 17.4083 1.16852C16.6292 1.87047 16.2397 2.88499 16.2397 3.89727V16.3746H17.8V3.89942C17.8 3.27661 18.0332 2.65166 18.5019 2.26218C18.8914 1.79347 19.5164 1.56023 20.1392 1.56023H52.8882C52.4195 2.26218 52.1091 3.04123 52.1091 3.89942V21.0529H53.6694V3.89942C53.6694 3.27661 53.9026 2.65166 54.3713 2.26218C54.7608 1.79347 55.3857 1.56023 56.0086 1.56023C57.3333 1.56023 58.3477 2.57466 58.3477 3.89942V5.45965H55.2251V7.01988H59.9036V3.90166C59.9036 1.71647 58.1894 0 56.0064 0Z" fill="#FB7710"/>
<path fill-rule="evenodd" clip-rule="evenodd" d="M51.405 47.6426C51.8737 47.2531 52.1069 46.6281 52.1069 46.0053L52.1047 33.5325H53.6649V46.0075C53.6649 47.0197 53.1983 47.9572 52.4964 48.7362C51.7943 49.5153 50.7821 49.9047 49.7676 49.9047H13.9004C11.7174 49.9047 10.001 48.1883 10.001 46.0053V42.8871H16.2374V33.5303H17.7977V42.8871H47.4286V46.0053C47.4286 47.3301 48.443 48.3445 49.7677 48.3445C50.3905 48.3445 50.9363 48.032 51.405 47.6426ZM11.5701 46.0054C11.5701 47.3302 12.5845 48.3446 13.9093 48.3446H46.6584C46.1918 47.7219 45.8793 46.8636 45.8793 46.0054V44.4452H11.5701V46.0054Z" fill="#FB7710"/>
<path fill-rule="evenodd" clip-rule="evenodd" d="M10.001 24.9525C10.001 21.053 13.1192 17.9348 17.0186 17.9348C20.0598 17.9348 22.6324 19.8824 23.6468 22.6132H56.7831V27.2916H53.6649V31.9701H48.9865V30.4099H45.8682V27.2916H23.6468C22.6323 30.0204 20.0598 31.9701 17.0186 31.9701C13.1192 31.9701 10.001 28.8519 10.001 24.9525ZM11.5612 24.9526C11.5612 27.9937 13.9774 30.41 17.0186 30.41C20.0598 30.41 22.476 27.9937 22.476 24.9526C22.476 21.9114 20.0597 19.4951 17.0186 19.4951C13.9775 19.4951 11.5612 21.9114 11.5612 24.9526ZM52.1069 30.41H50.5467V28.8497H47.4285V27.2895H52.1069V30.41ZM55.2251 25.7315V24.1713L23.9593 24.1734C24.0363 24.4067 24.0363 24.7192 24.0363 24.9525C24.0363 25.0691 24.017 25.2056 23.9978 25.3421C23.9785 25.4785 23.9593 25.6149 23.9593 25.7315H55.2251Z" fill="#FB7710"/>
<path fill-rule="evenodd" clip-rule="evenodd" d="M16.2485 24.9522C16.2485 23.6275 17.263 22.613 18.5877 22.613C19.9037 22.613 20.927 23.6275 20.9269 24.9522C20.9269 26.277 19.9125 27.2914 18.5877 27.2914C17.263 27.2914 16.2485 26.277 16.2485 24.9522ZM17.8087 24.9522C17.8087 25.4188 18.119 25.7313 18.5877 25.7313C19.0455 25.7313 19.358 25.4188 19.3668 24.9522C19.3668 24.4856 19.0564 24.1732 18.5877 24.1732C18.1211 24.1732 17.8087 24.4835 17.8087 24.9522Z" fill="#FB7710"/>
<rect x="31.0542" y="28.8496" width="1.56023" height="1.56023" fill="#FB7710"/>
<rect x="34.1724" y="28.8496" width="1.56023" height="1.56023" fill="#FB7710"/>
<rect x="37.2925" y="28.8496" width="1.56023" height="1.56023" fill="#FB7710"/>
<rect x="19.3579" y="33.5281" width="31.1888" height="1.56023" fill="#FB7710"/>
<rect x="19.3579" y="36.6484" width="31.1888" height="1.56023" fill="#FB7710"/>
<rect x="19.3579" y="39.7666" width="15.5955" height="1.56023" fill="#FB7710"/>
</g>
<rect x="14.0361" y="28.7136" width="1.56023" height="2.33918" fill="#FB7710"/>
<rect x="17.1548" y="24.8142" width="1.56023" height="6.2386" fill="#FB7710"/>
<rect x="20.2837" y="27.1536" width="1.56023" height="3.89942" fill="#FB7710"/>
<rect x="23.3931" y="24.0354" width="1.56023" height="7.01764" fill="#FB7710"/>
<rect x="26.5117" y="21.696" width="1.56023" height="9.35682" fill="#FB7710"/>
<rect x="29.6318" y="24.8142" width="1.56023" height="6.2386" fill="#FB7710"/>
<rect x="32.75" y="27.1536" width="1.56023" height="3.89942" fill="#FB7710"/>
<rect x="35.8682" y="22.4751" width="1.56023" height="8.57788" fill="#FB7710"/>
<rect x="38.9888" y="25.5955" width="1.56023" height="5.45741" fill="#FB7710"/>
<path fill-rule="evenodd" clip-rule="evenodd" d="M40.5467 15.4575H37.4285H35.8682H9.35791V20.136H35.8682H37.4285H40.5467V15.4575ZM35.8682 18.578H10.9269V17.0178H35.8793L35.8682 18.578ZM37.4285 18.578H38.9887V17.0178H37.4285V18.578Z" fill="#FB7710"/>
<path d="M46.0064 10H10.137C9.12249 10 8.11021 10.3895 7.40826 11.1685C6.62922 11.8705 6.23975 12.885 6.23975 13.8973V26.3746H7.79998V13.8994C7.79998 13.2766 8.03322 12.6517 8.50193 12.2622C8.8914 11.7935 9.51635 11.5602 10.1392 11.5602H42.8882C42.4195 12.2622 42.1091 13.0412 42.1091 13.8994V31.0529H43.6694V13.8994C43.6694 13.2766 43.9026 12.6517 44.3713 12.2622C44.7608 11.7935 45.3857 11.5602 46.0086 11.5602C47.3333 11.5602 48.3477 12.5747 48.3477 13.8994V15.4596H45.2251V17.0199H49.9036V13.9017C49.9036 11.7165 48.1894 10 46.0064 10Z" fill="#FB7710"/>
<path fill-rule="evenodd" clip-rule="evenodd" d="M41.405 57.6426C41.8737 57.2531 42.1069 56.6281 42.1069 56.0053L42.1047 43.5325H43.6649V56.0075C43.6649 57.0197 43.1983 57.9572 42.4964 58.7362C41.7943 59.5153 40.7821 59.9047 39.7676 59.9047H3.90039C1.71745 59.9047 0.000976562 58.1883 0.000976562 56.0053V52.8871H6.23743V43.5303H7.79766V52.8871H37.4286V56.0053C37.4286 57.3301 38.443 58.3445 39.7677 58.3445C40.3905 58.3445 40.9363 58.032 41.405 57.6426ZM1.57008 56.0054C1.57008 57.3302 2.5845 58.3446 3.90926 58.3446H36.6584C36.1918 57.7219 35.8793 56.8636 35.8793 56.0054V54.4452H1.57008V56.0054Z" fill="#FB7710"/>
<path fill-rule="evenodd" clip-rule="evenodd" d="M0.000976562 34.9525C0.000976562 31.053 3.1192 27.9348 7.01862 27.9348C10.0598 27.9348 12.6324 29.8824 13.6468 32.6132H46.7831V37.2916H43.6649V41.9701H38.9865V40.4099H35.8682V37.2916H13.6468C12.6323 40.0204 10.0598 41.9701 7.01862 41.9701C3.1192 41.9701 0.000976562 38.8519 0.000976562 34.9525ZM1.56121 34.9526C1.56121 37.9937 3.97739 40.41 7.01862 40.41C10.0598 40.41 12.476 37.9937 12.476 34.9526C12.476 31.9114 10.0597 29.4951 7.01862 29.4951C3.97749 29.4951 1.56121 31.9114 1.56121 34.9526ZM42.1069 40.41H40.5467V38.8497H37.4285V37.2895H42.1069V40.41ZM45.2251 35.7315V34.1713L13.9593 34.1734C14.0363 34.4067 14.0363 34.7192 14.0363 34.9525C14.0363 35.0691 14.017 35.2056 13.9978 35.3421C13.9785 35.4785 13.9593 35.6149 13.9593 35.7315H45.2251Z" fill="#FB7710"/>
<path fill-rule="evenodd" clip-rule="evenodd" d="M6.24854 34.9522C6.24854 33.6275 7.26296 32.613 8.58772 32.613C9.9037 32.613 10.927 33.6275 10.9269 34.9522C10.9269 36.277 9.91247 37.2914 8.58772 37.2914C7.26296 37.2914 6.24854 36.277 6.24854 34.9522ZM7.80867 34.9522C7.80867 35.4188 8.119 35.7313 8.58772 35.7313C9.04551 35.7313 9.35799 35.4188 9.36676 34.9522C9.36676 34.4856 9.05643 34.1732 8.58772 34.1732C8.12115 34.1732 7.80867 34.4835 7.80867 34.9522Z" fill="#FB7710"/>
<rect x="21.0542" y="38.8496" width="1.56023" height="1.56023" fill="#FB7710"/>
<rect x="24.1724" y="38.8496" width="1.56023" height="1.56023" fill="#FB7710"/>
<rect x="27.2925" y="38.8496" width="1.56023" height="1.56023" fill="#FB7710"/>
<rect x="9.35791" y="43.5281" width="31.1888" height="1.56023" fill="#FB7710"/>
<rect x="9.35791" y="46.6484" width="31.1888" height="1.56023" fill="#FB7710"/>
<rect x="9.35791" y="49.7666" width="15.5955" height="1.56023" fill="#FB7710"/>
</svg>
