<svg width="38" height="69" viewBox="0 0 38 69" fill="none" xmlns="http://www.w3.org/2000/svg">
<g opacity="0.4">
<g opacity="0.26">
<path fill-rule="evenodd" clip-rule="evenodd" d="M33.7542 48.7331C35.5692 48.7331 37.0455 50.2547 37.0455 52.1249C37.0455 53.9158 35.6928 55.3855 33.9855 55.5084V58.2273H13.0588V55.5084C11.3519 55.3854 10 53.9156 10 52.125C10 50.255 11.4759 48.7332 13.2904 48.7332H13.42C16.322 43.3751 17.9086 36.8866 18.0328 29.883H17.6092C16.4073 29.883 15.4298 28.875 15.4298 27.6365C15.4298 26.398 16.4075 25.39 17.6092 25.39H17.619L13.8255 15.8023H18.2423V13.0931H19.7542L20.6299 10.8974L16.7703 12.5343V3.29763L20.6302 4.93449L19.0428 0.95459H28.0024L26.415 4.93415L30.2746 3.29729V12.534L26.415 10.8971L27.291 13.0929H28.8029V15.8022H33.2194L29.4259 25.3899H29.4366C30.6371 25.3899 31.6143 26.3979 31.6143 27.6364C31.6143 28.8749 30.6371 29.8829 29.4366 29.8829H29.0136C29.1377 36.8873 30.7238 43.3758 33.6249 48.7331H33.7542ZM18.5005 9.87224L21.4705 8.6128L22.8461 10.0329L21.625 13.0929H25.4201L24.1998 10.0323L25.5753 8.61258L28.5441 9.87202V5.95969L25.5753 7.21913L24.1998 5.79928L25.4208 2.7381H21.6249L22.8459 5.79928L21.4705 7.21913L18.5005 5.95969V9.87224ZM19.9723 14.8764H27.0728V15.8022H19.9723V14.8764ZM28.8029 17.5861H18.2423H16.3996L19.488 25.3898H27.558L30.6456 17.5861H28.8029ZM17.1599 27.6365C17.1599 27.3814 17.3616 27.1735 17.6093 27.1735H18.3249H28.7203H29.4366C29.6827 27.1735 29.8841 27.3817 29.8841 27.6365C29.8841 27.8913 29.683 28.0993 29.4366 28.0993H29.0047V28.099H18.0418V28.0993H17.6093C17.3615 28.0993 17.1599 27.8917 17.1599 27.6365ZM27.2813 29.883H19.7636C19.645 36.8186 18.1415 43.2861 15.3867 48.7332H31.6574C28.9034 43.2872 27.4002 36.8195 27.2813 29.883ZM32.2554 56.4436H14.7889V55.5178H32.2554V56.4436ZM13.2906 53.7343H33.7541C34.6147 53.7343 35.3153 53.0124 35.3152 52.125C35.3152 51.2381 34.6147 50.5171 33.7541 50.5171H13.2906C12.4303 50.5171 11.7301 51.2384 11.7301 52.125C11.7301 53.0124 12.4303 53.7343 13.2906 53.7343Z" fill="white"/>
</g>
<path fill-rule="evenodd" clip-rule="evenodd" d="M23.7542 58.7331C25.5692 58.7331 27.0455 60.2547 27.0455 62.1249C27.0455 63.9158 25.6928 65.3855 23.9855 65.5084V68.2273H3.0588V65.5084C1.35194 65.3854 0 63.9156 0 62.125C0 60.255 1.47585 58.7332 3.29045 58.7332H3.42C6.32201 53.3751 7.90864 46.8866 8.03277 39.883H7.60918C6.40729 39.883 5.42979 38.875 5.42979 37.6365C5.42979 36.398 6.40751 35.39 7.60918 35.39H7.61905L3.82547 25.8023H8.24229V23.0931H9.75416L10.6299 20.8974L6.77034 22.5343V13.2976L10.6302 14.9345L9.04282 10.9546H18.0024L16.415 14.9341L20.2746 13.2973V22.534L16.415 20.8971L17.291 23.0929H18.8029V25.8022H23.2194L19.4259 35.3899H19.4366C20.6371 35.3899 21.6143 36.3979 21.6143 37.6364C21.6143 38.8749 20.6371 39.8829 19.4366 39.8829H19.0136C19.1377 46.8873 20.7238 53.3758 23.6249 58.7331H23.7542ZM8.50052 19.8722L11.4705 18.6128L12.8461 20.0329L11.625 23.0929H15.4201L14.1998 20.0323L15.5753 18.6126L18.5441 19.872V15.9597L15.5753 17.2191L14.1998 15.7993L15.4208 12.7381H11.6249L12.8459 15.7993L11.4705 17.2191L8.50052 15.9597V19.8722ZM9.97225 24.8764H17.0728V25.8022H9.97225V24.8764ZM18.8029 27.5861H8.24229H6.39959L9.48801 35.3898H17.558L20.6456 27.5861H18.8029ZM7.15987 37.6365C7.15987 37.3814 7.36157 37.1735 7.60928 37.1735H8.32486H18.7203H19.4366C19.6827 37.1735 19.8841 37.3817 19.8841 37.6365C19.8841 37.8913 19.683 38.0993 19.4366 38.0993H19.0047V38.099H8.04177V38.0993H7.60928C7.36146 38.0993 7.15987 37.8917 7.15987 37.6365ZM17.2813 39.883H9.7636C9.64501 46.8186 8.14149 53.2861 5.38672 58.7332H21.6574C18.9034 53.2872 17.4002 46.8195 17.2813 39.883ZM22.2554 66.4436H4.78887V65.5178H22.2554V66.4436ZM3.29056 63.7343H23.7541C24.6147 63.7343 25.3153 63.0124 25.3152 62.125C25.3152 61.2381 24.6147 60.5171 23.7541 60.5171H3.29056C2.43035 60.5171 1.73007 61.2384 1.73007 62.125C1.73007 63.0124 2.43035 63.7343 3.29056 63.7343Z" fill="white"/>
</g>
</svg>
