<svg width="60" height="60" viewBox="0 0 60 60" fill="none" xmlns="http://www.w3.org/2000/svg">
<g opacity="0.255162">
<path d="M56.9032 24.1936V25.8033H58.3766C57.9607 38.0635 48.0634 47.9602 35.8029 48.3767V46.9035H34.1934V50.0001H34.9981C48.7839 50.0001 59.9998 38.7842 59.9998 24.9984V24.1936H56.9032Z" fill="#FB7710"/>
<path fill-rule="evenodd" clip-rule="evenodd" d="M34.5968 4.03223C45.9359 4.03223 55.1613 13.2576 55.1613 24.5967C55.1613 35.9359 45.9357 45.1613 34.5966 45.1613C23.2576 45.1613 14.0322 35.9358 14.0322 24.5967V23.7885H21.9345V24.5967C21.9345 31.5782 27.6147 37.259 34.5964 37.259V38.8752C26.9942 38.8752 20.7608 32.9035 20.3405 25.405H15.6656C16.0912 35.4787 24.4197 43.5446 34.5966 43.5446C45.0446 43.5446 53.5446 35.0445 53.5446 24.5965C53.5446 14.4194 45.4791 6.09079 35.4052 5.66523V10.3417C42.9033 10.7624 48.8749 16.995 48.8749 24.5966C48.8749 28.4098 47.3896 31.9956 44.6924 34.6933L44.1209 35.2651L38.5305 29.675L39.1023 29.1032C40.3084 27.8977 40.9723 26.2969 40.9723 24.5966C40.9723 21.081 38.1122 18.2206 34.5966 18.2206C32.8966 18.2206 31.2965 18.8845 30.0902 20.0906L29.5188 20.662L23.9282 15.072L24.5 14.5007C27.0062 11.9949 30.2793 10.536 33.7886 10.3414V4.03223H34.5968ZM44.1032 32.961C46.1436 30.6478 47.2585 27.7075 47.2585 24.5965C47.2585 17.6149 41.5783 11.9346 34.5966 11.9346C31.4859 11.9346 28.5456 13.0494 26.2322 15.0899L29.5472 18.4044C30.9711 17.2384 32.7361 16.6043 34.5966 16.6043C39.0036 16.6043 42.5888 20.1896 42.5888 24.5965C42.5888 26.4573 41.9545 28.2231 40.7887 29.6467L44.1032 32.961Z" fill="#FB7710"/>
<path d="M30.1611 24.5966C30.1611 27.0422 32.3316 29.0322 34.9998 29.0322V27.4028C33.3117 27.4028 31.9384 26.1439 31.9384 24.5966C31.9384 23.0493 33.3118 21.7906 34.9998 21.7906V20.1613C32.3316 20.1613 30.1611 22.1508 30.1611 24.5966Z" fill="#FB7710"/>
<rect x="34.1934" y="24.1936" width="1.6129" height="1.6129" fill="#FB7710"/>
<path d="M26.129 2.78043L25.6812 1.61292C25.2888 1.75875 24.8966 1.91922 24.5161 2.08983L25.0408 3.22582C25.3963 3.06655 25.7624 2.91688 26.129 2.78043Z" fill="#FB7710"/>
<path d="M18.871 7.72338L17.6796 6.45166C17.2586 6.84601 16.8458 7.25892 16.4517 7.67989L17.7231 8.87102C18.0916 8.47802 18.478 8.09195 18.871 7.72338Z" fill="#FB7710"/>
<path d="M23.7099 4.00101L22.8523 2.41931C22.3225 2.70098 21.7967 3.0025 21.2905 3.31526L22.2502 4.83867C22.7232 4.54631 23.214 4.26465 23.7099 4.00101Z" fill="#FB7710"/>
<path d="M29.3546 2.09897L29.0461 0.806396C28.6114 0.906071 28.1725 1.02131 27.7417 1.14979L28.136 2.4193C28.5384 2.29959 28.9484 2.1917 29.3546 2.09897Z" fill="#FB7710"/>
<path d="M32.5807 1.43713L32.4344 0C31.9438 0.0471574 31.4508 0.110468 30.9678 0.188282L31.2101 1.6129C31.6613 1.54073 32.1226 1.48133 32.5807 1.43713Z" fill="#FB7710"/>
<path d="M21.2904 6.26275L20.2626 4.83875C19.7912 5.17566 19.3228 5.53356 18.8711 5.90316L19.99 7.2581C20.4124 6.91307 20.8497 6.57805 21.2904 6.26275Z" fill="#FB7710"/>
<path d="M10 22.4348L11.4378 22.5807C11.4819 22.1221 11.5408 21.6604 11.6129 21.2088L10.1875 20.9678C10.1101 21.4507 10.0469 21.9445 10 22.4348Z" fill="#FB7710"/>
<path d="M10.8066 19.0475L12.0997 19.3548C12.1923 18.9489 12.2998 18.5387 12.4195 18.1357L11.149 17.7419C11.0211 18.1733 10.9058 18.6126 10.8066 19.0475Z" fill="#FB7710"/>
<path d="M11.6128 15.6819L12.78 16.129C12.9162 15.7627 13.0661 15.396 13.2257 15.0397L12.09 14.5161C11.9193 14.898 11.7587 15.2902 11.6128 15.6819Z" fill="#FB7710"/>
<path d="M14.8388 12.2498L13.3163 11.2903C13.0011 11.8008 12.6995 12.3269 12.4194 12.854L14.0013 13.7096C14.2626 13.2172 14.5447 12.7263 14.8388 12.2498Z" fill="#FB7710"/>
<path d="M17.2582 9.98955L15.9035 8.87097C15.5361 9.32031 15.178 9.78861 14.8389 10.2626L16.2627 11.2903C16.5796 10.8472 16.9143 10.4093 17.2582 9.98955Z" fill="#FB7710"/>
<path d="M34.2183 0.786679V1.60011H34.2445L34.2449 1.6129C34.4999 1.60482 34.7558 1.60011 35.013 1.60011H35.8063V0H34.2183V0.0128932C34.21 0.0131819 34.2017 0.0132781 34.1934 0.0134705L34.2183 0.786679Z" fill="#FB7710"/>
<path d="M11.6001 24.2188H10.7943L10.0136 24.1936C10.0133 24.202 10.0132 24.2104 10.013 24.2188H10V25.8065H11.6001V25.0135C11.6001 24.7565 11.6045 24.5004 11.6129 24.2452L11.6001 24.2448V24.2188Z" fill="#FB7710"/>
</g>
<path d="M46.9032 34.1936V35.8033H48.3766C47.9607 48.0635 38.0634 57.9602 25.8029 58.3767V56.9035H24.1934V60.0001H24.9981C38.7839 60.0001 49.9998 48.7842 49.9998 34.9984V34.1936H46.9032Z" fill="#FB7710"/>
<path fill-rule="evenodd" clip-rule="evenodd" d="M24.5968 14.0322C35.9359 14.0322 45.1613 23.2576 45.1613 34.5967C45.1613 45.9359 35.9357 55.1613 24.5966 55.1613C13.2576 55.1613 4.03223 45.9358 4.03223 34.5967V33.7885H11.9345V34.5967C11.9345 41.5782 17.6147 47.259 24.5964 47.259V48.8752C16.9942 48.8752 10.7608 42.9035 10.3405 35.405H5.66561C6.09116 45.4787 14.4197 53.5446 24.5966 53.5446C35.0446 53.5446 43.5446 45.0445 43.5446 34.5965C43.5446 24.4194 35.4791 16.0908 25.4052 15.6652V20.3417C32.9033 20.7624 38.8749 26.995 38.8749 34.5966C38.8749 38.4098 37.3896 41.9956 34.6924 44.6933L34.1209 45.2651L28.5305 39.675L29.1023 39.1032C30.3084 37.8977 30.9723 36.2969 30.9723 34.5966C30.9723 31.081 28.1122 28.2206 24.5966 28.2206C22.8966 28.2206 21.2965 28.8845 20.0902 30.0906L19.5188 30.662L13.9282 25.072L14.5 24.5007C17.0062 21.9949 20.2793 20.536 23.7886 20.3414V14.0322H24.5968ZM34.1032 42.961C36.1436 40.6478 37.2585 37.7075 37.2585 34.5965C37.2585 27.6149 31.5783 21.9346 24.5966 21.9346C21.4859 21.9346 18.5456 23.0494 16.2322 25.0899L19.5472 28.4044C20.9711 27.2384 22.7361 26.6043 24.5966 26.6043C29.0036 26.6043 32.5888 30.1896 32.5888 34.5965C32.5888 36.4573 31.9545 38.2231 30.7887 39.6467L34.1032 42.961Z" fill="#FB7710"/>
<path d="M20.1611 34.5966C20.1611 37.0422 22.3316 39.0322 24.9998 39.0322V37.4028C23.3117 37.4028 21.9384 36.1439 21.9384 34.5966C21.9384 33.0493 23.3118 31.7906 24.9998 31.7906V30.1613C22.3316 30.1613 20.1611 32.1508 20.1611 34.5966Z" fill="#FB7710"/>
<rect x="24.1934" y="34.1936" width="1.6129" height="1.6129" fill="#FB7710"/>
<path d="M16.129 12.7804L15.6812 11.6129C15.2888 11.7588 14.8966 11.9192 14.5161 12.0898L15.0408 13.2258C15.3963 13.0665 15.7624 12.9169 16.129 12.7804Z" fill="#FB7710"/>
<path d="M8.87102 17.7234L7.67957 16.4517C7.2586 16.846 6.8458 17.2589 6.45166 17.6799L7.72306 18.871C8.09164 18.478 8.47802 18.092 8.87102 17.7234Z" fill="#FB7710"/>
<path d="M13.7099 14.001L12.8523 12.4193C12.3225 12.701 11.7967 13.0025 11.2905 13.3153L12.2502 14.8387C12.7232 14.5463 13.214 14.2646 13.7099 14.001Z" fill="#FB7710"/>
<path d="M19.3546 12.099L19.0461 10.8064C18.6114 10.9061 18.1725 11.0213 17.7417 11.1498L18.136 12.4193C18.5384 12.2996 18.9484 12.1917 19.3546 12.099Z" fill="#FB7710"/>
<path d="M22.5807 11.4371L22.4344 10C21.9438 10.0472 21.4508 10.1105 20.9678 10.1883L21.2101 11.6129C21.6613 11.5407 22.1226 11.4813 22.5807 11.4371Z" fill="#FB7710"/>
<path d="M11.2904 16.2628L10.2626 14.8387C9.79124 15.1757 9.3228 15.5336 8.87109 15.9032L9.99002 17.2581C10.4124 16.9131 10.8497 16.578 11.2904 16.2628Z" fill="#FB7710"/>
<path d="M0 32.4348L1.43784 32.5807C1.48189 32.1221 1.54079 31.6604 1.6129 31.2088L0.187484 30.9678C0.110075 31.4507 0.0469145 31.9445 0 32.4348Z" fill="#FB7710"/>
<path d="M0.806641 29.0475L2.09973 29.3548C2.19233 28.9489 2.29979 28.5387 2.41954 28.1357L1.14897 27.7419C1.02108 28.1733 0.905795 28.6126 0.806641 29.0475Z" fill="#FB7710"/>
<path d="M1.61279 25.6819L2.78002 26.129C2.91615 25.7627 3.06609 25.396 3.2257 25.0397L2.08997 24.5161C1.91926 24.898 1.75868 25.2902 1.61279 25.6819Z" fill="#FB7710"/>
<path d="M4.83879 22.2498L3.31627 21.2903C3.0011 21.8008 2.69953 22.3269 2.41943 22.854L4.0013 23.7096C4.26262 23.2172 4.54466 22.7263 4.83879 22.2498Z" fill="#FB7710"/>
<path d="M7.25822 19.9896L5.90346 18.871C5.53612 19.3203 5.17795 19.7886 4.83887 20.2626L6.26269 21.2903C6.57963 20.8472 6.91429 20.4093 7.25822 19.9896Z" fill="#FB7710"/>
<path d="M24.2183 10.7867V11.6001H24.2445L24.2449 11.6129C24.4999 11.6048 24.7558 11.6001 25.013 11.6001H25.8063V10H24.2183V10.0129C24.21 10.0132 24.2017 10.0133 24.1934 10.0135L24.2183 10.7867Z" fill="#FB7710"/>
<path d="M1.60011 34.2188H0.79428L0.0135667 34.1936C0.0132781 34.202 0.0131819 34.2104 0.0129894 34.2188H0V35.8065H1.60011V35.0135C1.60011 34.7565 1.60453 34.5004 1.6129 34.2452L1.60011 34.2448V34.2188Z" fill="#FB7710"/>
</svg>
