<svg width="63" height="63" viewBox="0 0 63 63" fill="none" xmlns="http://www.w3.org/2000/svg">
<g opacity="0.4">
<g opacity="0.26">
<path d="M44.1819 17.995C44.1819 16.9598 43.7787 15.9868 43.0456 15.2533C42.3154 14.5198 41.3445 14.1156 40.3106 14.1156H31.6431C30.6138 14.1156 29.6409 14.5206 28.9039 15.2543C28.1732 15.9863 27.7705 16.9593 27.7705 17.995V23.4146H26.0982H26.0979V17.9946C26.0979 16.5113 26.6746 15.1167 27.7231 14.0662C28.7771 13.0171 30.1694 12.439 31.6427 12.439H40.3102C41.7908 12.439 43.1832 13.0178 44.2277 14.0678C45.2765 15.1164 45.854 16.511 45.854 17.9949V23.4145H44.1817V17.995H44.1819Z" fill="white"/>
<rect width="1.46341" height="5.12195" transform="matrix(-1 0 0 1 41.4634 18.2927)" fill="white"/>
<rect width="1.46341" height="5.12195" transform="matrix(-1 0 0 1 32.6831 18.2927)" fill="white"/>
<path fill-rule="evenodd" clip-rule="evenodd" d="M30.4878 5.4873C30.4878 8.51345 32.9492 10.9756 35.9748 10.9756C39.0013 10.9756 41.4634 8.51335 41.4634 5.4873C41.4634 2.46134 39.0013 0 35.9748 0C32.9491 0 30.4878 2.46145 30.4878 5.4873ZM32.1443 5.4873C32.144 3.37464 33.8628 1.6557 35.9748 1.6557C38.0881 1.6557 39.8074 3.37464 39.8074 5.4873C39.8074 7.60046 38.0882 9.31991 35.9748 9.31991C33.8628 9.31991 32.1443 7.60046 32.1443 5.4873Z" fill="white"/>
<path d="M52.5968 32.4559C51.9062 31.7436 50.9869 31.3513 50.0083 31.3513H36.8231V35.1212H35.1278V31.3513H21.9412C20.9631 31.3513 20.045 31.7432 19.3528 32.4582C18.6619 33.1665 18.2809 34.1123 18.2809 35.1221H16.5857C16.5857 33.6448 17.1439 32.2593 18.1545 31.2232C19.1643 30.1803 20.5096 29.6056 21.9412 29.6056H35.1277V25.6099H36.823V29.6056H50.0083C51.4408 29.6056 52.7857 30.1803 53.7952 31.2218C54.8086 32.2623 55.3662 33.6476 55.3662 35.1221H53.6711C53.6711 34.1143 53.2898 33.1681 52.5968 32.4559Z" fill="white"/>
<path fill-rule="evenodd" clip-rule="evenodd" d="M18.0485 41.7073C16.4349 41.7073 15.1219 43.0205 15.1219 44.6349C15.1219 46.2483 16.4349 47.5609 18.0485 47.5609C19.6626 47.5609 20.9756 46.2483 20.9756 44.6349C20.9756 43.0204 19.6626 41.7073 18.0485 41.7073ZM18.0484 43.4056C18.7266 43.4056 19.2779 43.9571 19.2779 44.6347C19.2779 45.3118 18.7266 45.8627 18.0484 45.8628C17.3711 45.8628 16.8195 45.3121 16.8195 44.6347C16.8195 43.9574 17.371 43.4056 18.0484 43.4056Z" fill="white"/>
<path d="M12.3519 38.9451C15.493 35.7989 20.6047 35.7989 23.7458 38.9451C26.4136 41.6175 26.8667 45.8566 24.8231 49.0245L23.4085 48.109C25.0235 45.604 24.6648 42.252 22.5548 40.1382C20.0702 37.6493 16.0277 37.6493 13.5426 40.1382C11.4329 42.252 11.0734 45.6043 12.6886 48.109L11.274 49.0245C9.23122 45.8566 9.68444 41.6175 12.3519 38.9451Z" fill="white"/>
<path fill-rule="evenodd" clip-rule="evenodd" d="M17.138 48.2927C16.2235 48.2927 15.3637 48.6081 14.7162 49.1807C14.1906 49.6461 13.8544 50.2341 13.7454 50.8812L13.6587 51.3983L14.168 51.6632C15.4496 52.3303 16.9181 52.683 18.4141 52.683C19.9103 52.683 21.3791 52.3305 22.6613 51.6632L23.1709 51.3983L23.0839 50.8812C22.9748 50.2341 22.6392 49.6461 22.1131 49.1807C21.4659 48.6079 20.6058 48.2927 19.6918 48.2927H17.138ZM20.8739 50.2762C20.9877 50.3768 21.0834 50.4888 21.1594 50.6094C19.4454 51.2977 17.3828 51.2974 15.6697 50.6094C15.7458 50.4888 15.8407 50.3768 15.9547 50.2762C16.271 49.9961 16.6912 49.8422 17.1377 49.8422H19.6915C20.1375 49.8422 20.5576 49.9961 20.8739 50.2762Z" fill="white"/>
<path fill-rule="evenodd" clip-rule="evenodd" d="M36.3414 41.7073C34.7278 41.7073 33.4149 43.0205 33.4149 44.6349C33.4149 46.2483 34.7278 47.5609 36.3414 47.5609C37.9554 47.5609 39.2686 46.2483 39.2686 44.6349C39.2686 43.0204 37.9558 41.7073 36.3414 41.7073ZM36.3414 43.4056C37.0195 43.4056 37.571 43.9571 37.571 44.6347C37.571 45.3118 37.0195 45.8627 36.3414 45.8628C35.6638 45.8628 35.1126 45.3121 35.1126 44.6347C35.1126 43.9574 35.6638 43.4056 36.3414 43.4056Z" fill="white"/>
<path d="M42.0389 38.9451C44.7063 41.6175 45.1597 45.8566 43.1162 49.0245L41.7016 48.109C43.3168 45.604 42.9579 42.252 40.8479 40.1382C38.3633 37.6493 34.3204 37.6493 31.8356 40.1382C29.7261 42.252 29.3667 45.6043 30.9819 48.109L29.5673 49.0245C27.524 45.8565 27.9775 41.6175 30.6451 38.9451C33.7863 35.7989 38.8978 35.7989 42.0389 38.9451Z" fill="white"/>
<path fill-rule="evenodd" clip-rule="evenodd" d="M35.4306 48.2927C34.5161 48.2927 33.6563 48.6081 33.0088 49.1807C32.4833 49.6461 32.1471 50.2341 32.0382 50.8812L31.9512 51.3983L32.4608 51.6632C33.742 52.3303 35.2105 52.683 36.707 52.683C38.2032 52.683 39.672 52.3305 40.9541 51.6632L41.4634 51.3983L41.3764 50.8812C41.2673 50.2341 40.9315 49.6461 40.4056 49.1807C39.7587 48.6079 38.8983 48.2927 37.9844 48.2927H35.4306ZM39.1662 50.2762C39.2802 50.3768 39.3759 50.4888 39.452 50.6094C37.738 51.2977 35.6754 51.2974 33.962 50.6094C34.0379 50.4888 34.1332 50.3768 34.2472 50.2762C34.5632 49.9961 34.9836 49.8422 35.4301 49.8422H37.9838C38.4301 49.8422 38.85 49.9961 39.1662 50.2762Z" fill="white"/>
<path fill-rule="evenodd" clip-rule="evenodd" d="M54.6339 41.7073C53.0203 41.7073 51.7074 43.0205 51.7074 44.6349C51.7074 46.2483 53.0203 47.5609 54.6339 47.5609C56.2481 47.5609 57.561 46.2483 57.561 44.6349C57.561 43.0204 56.2481 41.7073 54.6339 41.7073ZM54.6339 43.4056C55.3121 43.4056 55.8636 43.9571 55.8636 44.6347C55.8636 45.3118 55.3121 45.8627 54.6339 45.8628C53.9563 45.8628 53.4051 45.3121 53.4051 44.6347C53.4048 43.9574 53.9563 43.4056 54.6339 43.4056Z" fill="white"/>
<path d="M60.3312 38.9451C62.999 41.6175 63.4521 45.8566 61.4085 49.0245L59.9942 48.109C61.6093 45.604 61.2502 42.252 59.1401 40.1382C56.6555 37.6493 52.6128 37.6493 50.1281 40.1382C48.0183 42.252 47.6588 45.6043 49.2741 48.109L47.8597 49.0245C45.8166 45.8565 46.2698 41.6175 48.9371 38.9451C52.0783 35.7989 57.1897 35.7989 60.3312 38.9451Z" fill="white"/>
<path fill-rule="evenodd" clip-rule="evenodd" d="M52.9916 48.2927C52.077 48.2927 51.2173 48.6081 50.57 49.1807C50.0441 49.6461 49.7083 50.2341 49.5992 50.8812L49.5122 51.3983L50.0215 51.6632C51.3028 52.3303 52.7714 52.683 54.2676 52.683C55.7638 52.683 57.2327 52.3305 58.5148 51.6632L59.0244 51.3983L58.9374 50.8812C58.8284 50.2341 58.4927 49.6461 57.9666 49.1807C57.3197 48.6079 56.4593 48.2927 55.5453 48.2927H52.9916ZM56.7272 50.2762C56.841 50.3768 56.9367 50.4888 57.0127 50.6094C55.2986 51.2977 53.2361 51.2974 51.523 50.6094C51.599 50.4888 51.694 50.3768 51.8082 50.2762C52.1243 49.9961 52.5445 49.8422 52.991 49.8422H55.5448C55.9911 49.8422 56.4111 49.9961 56.7272 50.2762Z" fill="white"/>
</g>
<path d="M34.1819 27.995C34.1819 26.9598 33.7787 25.9868 33.0456 25.2533C32.3154 24.5198 31.3445 24.1156 30.3106 24.1156H21.6431C20.6138 24.1156 19.6409 24.5206 18.9039 25.2543C18.1732 25.9863 17.7705 26.9593 17.7705 27.995V33.4146H16.0982H16.0979V27.9946C16.0979 26.5113 16.6746 25.1167 17.7231 24.0662C18.7771 23.0171 20.1694 22.439 21.6427 22.439H30.3102C31.7908 22.439 33.1832 23.0178 34.2277 24.0678C35.2765 25.1164 35.854 26.511 35.854 27.9949V33.4145H34.1817V27.995H34.1819Z" fill="white"/>
<rect width="1.46341" height="5.12195" transform="matrix(-1 0 0 1 31.4634 28.2927)" fill="white"/>
<rect width="1.46341" height="5.12195" transform="matrix(-1 0 0 1 22.6831 28.2927)" fill="white"/>
<path fill-rule="evenodd" clip-rule="evenodd" d="M20.4878 15.4873C20.4878 18.5135 22.9492 20.9756 25.9748 20.9756C29.0013 20.9756 31.4634 18.5134 31.4634 15.4873C31.4634 12.4613 29.0013 10 25.9748 10C22.9491 10 20.4878 12.4614 20.4878 15.4873ZM22.1443 15.4873C22.144 13.3746 23.8628 11.6557 25.9748 11.6557C28.0881 11.6557 29.8074 13.3746 29.8074 15.4873C29.8074 17.6005 28.0882 19.3199 25.9748 19.3199C23.8628 19.3199 22.1443 17.6005 22.1443 15.4873Z" fill="white"/>
<path d="M42.5968 42.4559C41.9062 41.7436 40.9869 41.3513 40.0083 41.3513H26.8231V45.1212H25.1278V41.3513H11.9412C10.9631 41.3513 10.045 41.7432 9.35278 42.4582C8.6619 43.1665 8.28086 44.1123 8.28086 45.1221H6.58572C6.58572 43.6448 7.1439 42.2593 8.15451 41.2232C9.16429 40.1803 10.5096 39.6056 11.9412 39.6056H25.1277V35.6099H26.823V39.6056H40.0083C41.4408 39.6056 42.7857 40.1803 43.7952 41.2218C44.8086 42.2623 45.3662 43.6476 45.3662 45.1221H43.6711C43.6711 44.1143 43.2898 43.1681 42.5968 42.4559Z" fill="white"/>
<path fill-rule="evenodd" clip-rule="evenodd" d="M8.0485 51.7073C6.43488 51.7073 5.12193 53.0205 5.12193 54.6349C5.12193 56.2483 6.43488 57.5609 8.0485 57.5609C9.66264 57.5609 10.9756 56.2483 10.9756 54.6349C10.9756 53.0204 9.66264 51.7073 8.0485 51.7073ZM8.04839 53.4056C8.72665 53.4056 9.27786 53.9571 9.27786 54.6347C9.27786 55.3118 8.72665 55.8627 8.04839 55.8628C7.37107 55.8628 6.81955 55.3121 6.81955 54.6347C6.81955 53.9574 7.37097 53.4056 8.04839 53.4056Z" fill="white"/>
<path d="M2.35194 48.9451C5.49302 45.7989 10.6047 45.7989 13.7458 48.9451C16.4136 51.6175 16.8667 55.8566 14.8231 59.0245L13.4085 58.109C15.0235 55.604 14.6648 52.252 12.5548 50.1382C10.0702 47.6493 6.02772 47.6493 3.54263 50.1382C1.43289 52.252 1.07335 55.6043 2.68862 58.109L1.27396 59.0245C-0.768778 55.8566 -0.315561 51.6175 2.35194 48.9451Z" fill="white"/>
<path fill-rule="evenodd" clip-rule="evenodd" d="M7.13801 58.2927C6.22347 58.2927 5.36367 58.6081 4.71616 59.1807C4.19061 59.6461 3.85443 60.2341 3.74538 60.8812L3.6587 61.3983L4.16802 61.6632C5.4496 62.3303 6.91809 62.683 8.4141 62.683C9.91033 62.683 11.3791 62.3305 12.6613 61.6632L13.1709 61.3983L13.0839 60.8812C12.9748 60.2341 12.6392 59.6461 12.1131 59.1807C11.4659 58.6079 10.6058 58.2927 9.69181 58.2927H7.13801ZM10.8739 60.2762C10.9877 60.3768 11.0834 60.4888 11.1594 60.6094C9.44543 61.2977 7.38277 61.2974 5.66974 60.6094C5.74577 60.4888 5.84073 60.3768 5.95472 60.2762C6.27101 59.9961 6.69117 59.8422 7.13769 59.8422H9.69149C10.1375 59.8422 10.5576 59.9961 10.8739 60.2762Z" fill="white"/>
<path fill-rule="evenodd" clip-rule="evenodd" d="M26.3414 51.7073C24.7278 51.7073 23.4149 53.0205 23.4149 54.6349C23.4149 56.2483 24.7278 57.5609 26.3414 57.5609C27.9554 57.5609 29.2686 56.2483 29.2686 54.6349C29.2686 53.0204 27.9558 51.7073 26.3414 51.7073ZM26.3414 53.4056C27.0195 53.4056 27.571 53.9571 27.571 54.6347C27.571 55.3118 27.0195 55.8627 26.3414 55.8628C25.6638 55.8628 25.1126 55.3121 25.1126 54.6347C25.1126 53.9574 25.6638 53.4056 26.3414 53.4056Z" fill="white"/>
<path d="M32.0389 48.9451C34.7063 51.6175 35.1597 55.8566 33.1162 59.0245L31.7016 58.109C33.3168 55.604 32.9579 52.252 30.8479 50.1382C28.3633 47.6493 24.3204 47.6493 21.8356 50.1382C19.7261 52.252 19.3667 55.6043 20.9819 58.109L19.5673 59.0245C17.524 55.8565 17.9775 51.6175 20.6451 48.9451C23.7863 45.7989 28.8978 45.7989 32.0389 48.9451Z" fill="white"/>
<path fill-rule="evenodd" clip-rule="evenodd" d="M25.4306 58.2927C24.5161 58.2927 23.6563 58.6081 23.0088 59.1807C22.4833 59.6461 22.1471 60.2341 22.0382 60.8812L21.9512 61.3983L22.4608 61.6632C23.742 62.3303 25.2105 62.683 26.707 62.683C28.2032 62.683 29.672 62.3305 30.9541 61.6632L31.4634 61.3983L31.3764 60.8812C31.2673 60.2341 30.9315 59.6461 30.4056 59.1807C29.7587 58.6079 28.8983 58.2927 27.9844 58.2927H25.4306ZM29.1662 60.2762C29.2802 60.3768 29.3759 60.4888 29.452 60.6094C27.738 61.2977 25.6754 61.2974 23.962 60.6094C24.0379 60.4888 24.1332 60.3768 24.2472 60.2762C24.5632 59.9961 24.9836 59.8422 25.4301 59.8422H27.9838C28.4301 59.8422 28.85 59.9961 29.1662 60.2762Z" fill="white"/>
<path fill-rule="evenodd" clip-rule="evenodd" d="M44.6339 51.7073C43.0203 51.7073 41.7074 53.0205 41.7074 54.6349C41.7074 56.2483 43.0203 57.5609 44.6339 57.5609C46.2481 57.5609 47.561 56.2483 47.561 54.6349C47.561 53.0204 46.2481 51.7073 44.6339 51.7073ZM44.6339 53.4056C45.3121 53.4056 45.8636 53.9571 45.8636 54.6347C45.8636 55.3118 45.3121 55.8627 44.6339 55.8628C43.9563 55.8628 43.4051 55.3121 43.4051 54.6347C43.4048 53.9574 43.9563 53.4056 44.6339 53.4056Z" fill="white"/>
<path d="M50.3312 48.9451C52.999 51.6175 53.4521 55.8566 51.4085 59.0245L49.9942 58.109C51.6093 55.604 51.2502 52.252 49.1401 50.1382C46.6555 47.6493 42.6128 47.6493 40.1281 50.1382C38.0183 52.252 37.6588 55.6043 39.2741 58.109L37.8597 59.0245C35.8166 55.8565 36.2698 51.6175 38.9371 48.9451C42.0783 45.7989 47.1897 45.7989 50.3312 48.9451Z" fill="white"/>
<path fill-rule="evenodd" clip-rule="evenodd" d="M42.9916 58.2927C42.077 58.2927 41.2173 58.6081 40.57 59.1807C40.0441 59.6461 39.7083 60.2341 39.5992 60.8812L39.5122 61.3983L40.0215 61.6632C41.3028 62.3303 42.7714 62.683 44.2676 62.683C45.7638 62.683 47.2327 62.3305 48.5148 61.6632L49.0244 61.3983L48.9374 60.8812C48.8284 60.2341 48.4927 59.6461 47.9666 59.1807C47.3197 58.6079 46.4593 58.2927 45.5453 58.2927H42.9916ZM46.7272 60.2762C46.841 60.3768 46.9367 60.4888 47.0127 60.6094C45.2986 61.2977 43.2361 61.2974 41.523 60.6094C41.599 60.4888 41.694 60.3768 41.8082 60.2762C42.1243 59.9961 42.5445 59.8422 42.991 59.8422H45.5448C45.9911 59.8422 46.4111 59.9961 46.7272 60.2762Z" fill="white"/>
</g>
</svg>
