<svg width="70" height="70" xmlns="http://www.w3.org/2000/svg">
 <!-- Created with Method Draw - http://github.com/duopixel/Method-Draw/ -->

 <g>
  <title>background</title>
  <rect fill="none" id="canvas_background" height="72" width="72" y="-1" x="-1"/>
 </g>
 <g>
  <title>Layer 1</title>
  <g stroke="null" id="svg_15">
   <path stroke="null" id="svg_4" fill="#FB7710" d="m60.84509,26.47254l-1.31558,-1.31211l-2.63125,2.53049l-2.06743,0l1.2217,-1.21839l-1.31567,-1.31211l-2.53719,2.53049l-10.9008,0c-0.46985,-5.24843 -4.88663,-9.37219 -10.24301,-9.37219c-5.73236,0 -10.33698,4.59238 -10.33698,10.30941c0,5.71704 4.60463,10.30941 10.33698,10.30941c5.35639,0 9.77316,-4.12377 10.24301,-9.37219l10.9008,0l2.53719,2.53049l1.31567,-1.31211l-1.12773,-1.21839l2.06743,0l2.53728,2.53049l1.31558,-1.31211l-2.1614,-2.1556l2.1614,-2.1556zm-26.21829,3.09282c-0.37588,1.59327 -1.87949,2.81166 -3.66492,2.81166c-2.06743,0 -3.75889,-1.687 -3.75889,-3.74888c0,-2.06188 1.69146,-3.74888 3.75889,-3.74888c1.78543,0 3.19507,1.21839 3.66492,2.81166l-3.66492,0l0,1.87444l3.66492,0zm-9.30331,-0.93722c0,-3.09282 2.53728,-5.62332 5.63839,-5.62332c2.81919,0 5.07448,2.06188 5.54433,4.6861l2.81919,0c-0.46985,-4.21749 -4.04081,-7.49776 -8.36352,-7.49776c-4.6986,0 -8.45758,3.74888 -8.45758,8.43498c0,4.6861 3.75899,8.43498 8.45758,8.43498c4.41669,0 7.98764,-3.28027 8.36352,-7.49776l-2.81919,0c-0.46985,2.62421 -2.72513,4.6861 -5.54433,4.6861c-3.1011,0 -5.63839,-2.53049 -5.63839,-5.62332z" clip-rule="evenodd" fill-rule="evenodd"/>
   <path stroke="null" id="svg_5" fill="#FB7710" d="m28.18421,15.49277l-0.2778,-1.86013c-6.01931,1.02307 -10.83474,5.95237 -11.85338,11.90484l1.85206,0.27901c0.83351,-5.11534 5.1859,-9.48667 10.27913,-10.32373z"/>
   <path stroke="null" id="svg_6" fill="#FB7710" d="m27.90845,43.62366l0.27575,-1.84604c-5.14661,-0.83075 -9.46597,-5.16886 -10.29313,-10.33781l-1.83806,0.27695c1.0109,5.99961 5.88176,10.89161 11.85544,11.9069z"/>
   <path stroke="null" id="svg_7" fill="#FB7710" d="m45.9144,31.71882l-1.85206,-0.27901c-0.83351,5.11534 -5.1859,9.48663 -10.27913,10.32375l0.2778,1.8601c6.01931,-1.02307 10.92731,-5.95237 11.85338,-11.90484z"/>
   <path stroke="null" id="svg_8" fill="#FB7710" d="m34.05897,13.63264l-0.27575,1.84604c5.14661,0.83071 9.46597,5.16886 10.29313,10.33781l1.83806,-0.27695c-1.0109,-5.99961 -5.88176,-10.89159 -11.85544,-11.9069z"/>
   <rect stroke="null" transform="matrix(0.9331682316140657,0,0,0.9372194558162134,-1.2350485464996388,-1.2999418263747273) " id="svg_9" fill="#FB7710" height="2" width="2" y="15.93285" x="33.52621"/>
   <rect stroke="null" transform="matrix(0.9331682316140657,0,0,0.9372194558162134,-1.2350485464996388,-1.2999418263747273) " id="svg_10" fill="#FB7710" height="2" width="2" y="30.93285" x="17.52621"/>
   <rect stroke="null" transform="matrix(0.9331682316140657,0,0,0.9372194558162134,-1.2350485464996388,-1.2999418263747273) " id="svg_11" fill="#FB7710" height="2" width="2" y="46.93285" x="33.52621"/>
   <path stroke="null" id="svg_12" fill="#FB7710" d="m37.40129,53.05246c0.28471,-3.82695 2.18333,-7.84528 5.03118,-10.33284c2.56313,-2.29619 4.36676,-5.07073 5.41098,-8.13235l1.80363,0.57405c-1.13912,3.44428 -3.22755,6.5059 -5.98049,8.99346c-2.46814,2.10481 -4.08196,5.54909 -4.36676,8.80199l1.80363,0l0,1.91352l-20.88431,0l0,-1.91352l1.80363,0c-0.2848,-3.34859 -1.89853,-6.69718 -4.36676,-8.89768c-4.17686,-3.63566 -6.645,-8.70639 -6.9298,-14.0642l-2.84782,0l0,1.91352c0,0.28698 -0.09492,0.66974 -0.47464,0.86112c-0.03932,0 -0.09493,0.0164 -0.16009,0.03561c-0.09213,0.02718 -0.20335,0.05998 -0.31456,0.05998c-0.09493,0 -0.28478,0 -0.47465,-0.0956l-5.69573,-2.87023c-0.37971,-0.19138 -0.56957,-0.47845 -0.56957,-0.86112c0,-0.38267 0.28478,-0.66974 0.56957,-0.86112l5.69573,-2.87023c0.28478,-0.19129 0.6645,-0.19129 0.94929,0c0.28478,0.19138 0.47464,0.57414 0.47464,0.86112l0,1.91352l2.94282,0c0.47461,-10.6199 9.20804,-19.13493 19.84009,-19.13493c8.73343,0 16.42273,5.6448 18.79587,14.15979l-1.80363,0.57405c-2.27824,-7.65392 -9.20804,-12.72468 -17.08715,-12.72468c-9.96754,0 -18.03646,8.1323 -18.03646,18.17817c0,5.16642 2.27824,10.04577 6.36019,13.58575c2.84784,2.58326 4.74647,6.5059 5.03127,10.33284l2.94275,0l0,-3.82695l1.89862,0l0,3.82695l3.79715,0l0,-3.82695l1.89853,0l0,3.82695l2.94284,0zm-31.42148,-22.67481l0.09493,0l0,-2.67895l-2.65801,1.33947l2.56308,1.33947z" clip-rule="evenodd" fill-rule="evenodd"/>
   <rect stroke="null" transform="matrix(0.9331682316140657,0,0,0.9372194558162134,-1.2350485464996388,-1.2999418263747273) " id="svg_13" fill="#FB7710" height="2" width="22" y="61.93285" x="23.52621"/>
   <path stroke="null" id="svg_14" fill="#FB7710" d="m20.71886,62.36805l1.86634,0l0,3.74888l4.66584,0l0,0.93722c0,0.74978 0.27995,1.49955 0.83985,1.96816c0.5599,0.46861 1.21312,0.8435 1.95965,0.8435l1.86634,0c0.74653,0 1.49307,-0.28117 1.95965,-0.8435c0.46658,-0.56233 0.83985,-1.21839 0.83985,-1.96816l0,-0.93722l4.66584,0l0,-3.74888l1.86634,0l0,-1.87444l-20.5297,0l0,1.87444zm12.13119,4.6861c0,0.28117 -0.09332,0.46861 -0.27995,0.65605c-0.18663,0.18744 -0.37327,0.28117 -0.65322,0.28117l-1.86634,0c-0.27995,0 -0.46658,-0.09372 -0.65322,-0.28117c-0.18663,-0.18744 -0.27995,-0.37489 -0.27995,-0.65605l0,-0.93722l3.73267,0l0,0.93722zm4.66584,-4.6861l-13.06436,0l0,1.87444l13.06436,0l0,-1.87444z" clip-rule="evenodd" fill-rule="evenodd"/>
  </g>
  <g stroke="null" id="svg_31">
   <g stroke="null" transform="matrix(0.8985243139393022,0,0,0.9173562061861515,-172.4544042169577,-167.2587118706422) " id="svg_19" opacity="0.26">
    <path stroke="null" id="svg_20" fill="#FB7710" d="m269.78103,201.20785l-1.4098,-1.4l-2.8197,2.7l-2.2155,0l1.3092,-1.3l-1.4099,-1.4l-2.7189,2.7l-11.6815,0c-0.5035,-5.6 -5.2366,-10 -10.9766,-10c-6.1429,0 -11.0773,4.9 -11.0773,11c0,6.1 4.9344,11 11.0773,11c5.74,0 10.4731,-4.4 10.9766,-10l11.6815,0l2.7189,2.7l1.4099,-1.4l-1.2085,-1.3l2.2155,0l2.719,2.7l1.4098,-1.4l-2.3162,-2.3l2.3162,-2.3zm-28.096,3.3c-0.4028,1.7 -2.0141,3 -3.9274,3c-2.2155,0 -4.0281,-1.8 -4.0281,-4c0,-2.2 1.8126,-4 4.0281,-4c1.9133,0 3.4239,1.3 3.9274,3l-3.9274,0l0,2l3.9274,0zm-9.9696,-1c0,-3.3 2.719,-6 6.0422,-6c3.0211,0 5.4379,2.2 5.9414,5l3.0211,0c-0.5035,-4.5 -4.3302,-8 -8.9625,-8c-5.0351,0 -9.0633,4 -9.0633,9c0,5 4.0282,9 9.0633,9c4.733,0 8.5597,-3.5 8.9625,-8l-3.0211,0c-0.5035,2.8 -2.9203,5 -5.9414,5c-3.3232,0 -6.0422,-2.7 -6.0422,-6z" clip-rule="evenodd" fill-rule="evenodd"/>
    <path stroke="null" id="svg_21" fill="#FB7710" d="m234.78103,189.49258l-0.2977,-1.98473c-6.4504,1.0916 -11.6107,6.3511 -12.7023,12.7023l1.9847,0.2977c0.8932,-5.458 5.5573,-10.12214 11.0153,-11.01527z"/>
    <path stroke="null" id="svg_22" fill="#FB7710" d="m234.48553,219.50785l0.2955,-1.9697c-5.5152,-0.8864 -10.1439,-5.5151 -11.0303,-11.0303l-1.9697,0.2955c1.0833,6.4015 6.303,11.6212 12.7045,12.7045z"/>
    <path stroke="null" id="svg_23" fill="#FB7710" d="m253.78103,206.80555l-1.9847,-0.2977c-0.8932,5.458 -5.5573,10.1221 -11.0153,11.0153l0.2977,1.9847c6.4504,-1.0916 11.7099,-6.3511 12.7023,-12.7023z"/>
    <path stroke="null" id="svg_24" fill="#FB7710" d="m241.07653,187.50785l-0.2955,1.9697c5.5152,0.88636 10.1439,5.5151 11.0303,11.0303l1.9697,-0.2955c-1.0833,-6.4015 -6.303,-11.62117 -12.7045,-12.7045z"/>
    <rect stroke="null" id="svg_25" fill="#FB7710" height="2" width="2" y="187.50785" x="236.78103"/>
    <rect stroke="null" id="svg_26" fill="#FB7710" height="2" width="2" y="202.50785" x="220.78103"/>
    <rect stroke="null" id="svg_27" fill="#FB7710" height="2" width="2" y="218.50785" x="236.78103"/>
    <path stroke="null" id="svg_28" fill="#FB7710" d="m244.65823,229.56825c0.3051,-4.0833 2.3397,-8.3708 5.3915,-11.025c2.7467,-2.45 4.6795,-5.4104 5.7985,-8.6771l1.9328,0.6125c-1.2207,3.675 -3.4587,6.9417 -6.4088,9.5959c-2.6449,2.2458 -4.3743,5.9208 -4.6795,9.3916l1.9328,0l0,2.0417l-22.38,0l0,-2.0417l1.9328,0c-0.3052,-3.5729 -2.0345,-7.1458 -4.6795,-9.4937c-4.476,-3.8792 -7.1209,-9.2896 -7.4261,-15.0063l-3.05178,0l0,2.0417c0,0.3062 -0.10172,0.7146 -0.50863,0.9188c-0.04214,0 -0.10173,0.0175 -0.17155,0.038c-0.09873,0.029 -0.21791,0.064 -0.33709,0.064c-0.10173,0 -0.30518,0 -0.50864,-0.102l-6.10365,-3.0625c-0.4069,-0.2042 -0.61036,-0.5105 -0.61036,-0.9188c0,-0.4083 0.30518,-0.7146 0.61036,-0.9188l6.10365,-3.0625c0.30518,-0.2041 0.71209,-0.2041 1.01728,0c0.30518,0.2042 0.50863,0.6126 0.50863,0.9188l0,2.0417l3.15358,0c0.5086,-11.33128 9.8675,-20.4167 21.261,-20.4167c9.3589,0 17.5989,6.02292 20.142,15.1083l-1.9328,0.6125c-2.4414,-8.16663 -9.8675,-13.57705 -18.3109,-13.57705c-10.6814,0 -19.3282,8.67705 -19.3282,19.39585c0,5.5125 2.4414,10.7187 6.8157,14.4958c3.0518,2.7563 5.0864,6.9417 5.3916,11.025l3.1535,0l0,-4.0833l2.0346,0l0,4.0833l4.0691,0l0,-4.0833l2.0345,0l0,4.0833l3.1536,0zm-33.67183,-24.1937l0.10173,0l0,-2.8584l-2.84837,1.4292l2.74664,1.4292z" clip-rule="evenodd" fill-rule="evenodd"/>
    <rect stroke="null" id="svg_29" fill="#FB7710" height="2" width="22" y="233.50785" x="226.78103"/>
    <path stroke="null" id="svg_30" fill="#FB7710" d="m226.78103,239.50785l2,0l0,4l5,0l0,1c0,0.8 0.3,1.6 0.9,2.1c0.6,0.5 1.3,0.9 2.1,0.9l2,0c0.8,0 1.6,-0.3 2.1,-0.9c0.5,-0.6 0.9,-1.3 0.9,-2.1l0,-1l5,0l0,-4l2,0l0,-2l-22,0l0,2zm13,5c0,0.3 -0.1,0.5 -0.3,0.7c-0.2,0.2 -0.4,0.3 -0.7,0.3l-2,0c-0.3,0 -0.5,-0.1 -0.7,-0.3c-0.2,-0.2 -0.3,-0.4 -0.3,-0.7l0,-1l4,0l0,1zm5,-5l-14,0l0,2l14,0l0,-2z" clip-rule="evenodd" fill-rule="evenodd"/>
   </g>
  </g>
 </g>
</svg>