<svg width="112" height="99" viewBox="0 0 112 99" fill="none" xmlns="http://www.w3.org/2000/svg">
<g opacity="0.121164">
<rect x="17.5977" y="81.6666" width="90.6951" height="2.72222" fill="#27262A"/>
<rect x="17.5977" y="74.8611" width="2.70732" height="2.72222" fill="#27262A"/>
<rect x="24.3657" y="74.8611" width="2.70732" height="2.72222" fill="#27262A"/>
<rect x="31.1343" y="74.8611" width="2.70732" height="2.72222" fill="#27262A"/>
<rect x="37.9023" y="74.8611" width="2.70732" height="2.72222" fill="#27262A"/>
<rect x="44.6709" y="74.8611" width="2.70732" height="2.72222" fill="#27262A"/>
<rect x="50.0854" y="74.8611" width="2.70732" height="2.72222" fill="#27262A"/>
<rect x="58.2075" y="74.8611" width="2.70732" height="2.72222" fill="#27262A"/>
<rect x="63.6221" y="74.8611" width="2.70732" height="2.72222" fill="#27262A"/>
<rect x="71.7441" y="74.8611" width="2.70732" height="2.72222" fill="#27262A"/>
<rect x="78.5122" y="74.8611" width="2.70732" height="2.72222" fill="#27262A"/>
<rect x="83.9268" y="74.8611" width="2.70732" height="2.72222" fill="#27262A"/>
<rect x="92.0488" y="74.8611" width="2.70732" height="2.72222" fill="#27262A"/>
<rect x="97.4634" y="74.8611" width="2.70732" height="2.72222" fill="#27262A"/>
<rect x="104.232" y="74.8611" width="2.70732" height="2.72222" fill="#27262A"/>
<rect x="17.5977" y="49" width="2.70732" height="21.7778" fill="#27262A"/>
<rect x="24.3657" y="46.2778" width="2.70732" height="24.5" fill="#27262A"/>
<rect x="31.1343" y="35.3889" width="2.70732" height="35.3889" fill="#27262A"/>
<rect x="37.9023" y="28.5834" width="2.70732" height="42.1944" fill="#27262A"/>
<rect x="44.6709" y="39.4722" width="2.70732" height="31.3056" fill="#27262A"/>
<rect x="50.0854" y="42.1945" width="2.70732" height="28.5833" fill="#27262A"/>
<rect x="58.2075" y="39.4722" width="2.70732" height="31.3056" fill="#27262A"/>
<rect x="63.6221" y="28.5834" width="2.70732" height="42.1944" fill="#27262A"/>
<rect x="71.7441" y="21.7778" width="2.70732" height="49" fill="#27262A"/>
<rect x="78.5122" y="32.6666" width="2.70732" height="38.1111" fill="#27262A"/>
<rect x="83.9268" y="35.3889" width="2.70732" height="35.3889" fill="#27262A"/>
<rect x="92.0488" y="32.6666" width="2.70732" height="38.1111" fill="#27262A"/>
<rect x="97.4634" y="20.4166" width="2.70732" height="50.3611" fill="#27262A"/>
<rect x="104.232" y="14.9722" width="2.70732" height="55.8056" fill="#27262A"/>
<path fill-rule="evenodd" clip-rule="evenodd" d="M106.11 0C103.414 0 101.22 2.197 101.22 4.89598C101.22 5.69317 101.413 6.44558 101.751 7.11127L88.0921 20.7926C87.4263 20.452 86.6732 20.2584 85.8756 20.2584C85.0778 20.2584 84.3248 20.4518 83.6589 20.7926L76.7444 13.8646C77.0834 13.1988 77.2759 12.4462 77.2759 11.6488C77.2759 8.94941 75.0824 6.75279 72.3862 6.75279C69.6894 6.75279 67.4959 8.94979 67.4959 11.6488C67.4959 12.4458 67.6882 13.1982 68.027 13.8637L54.368 27.5446C53.7021 27.204 52.949 27.0106 52.1512 27.0106C51.3533 27.0106 50.6002 27.2042 49.9342 27.545L43.0198 20.6176C43.3591 19.9517 43.5515 19.199 43.5515 18.4016C43.5515 15.7022 41.358 13.5056 38.6612 13.5056C35.9645 13.5056 33.771 15.7026 33.771 18.4016C33.771 19.1988 33.9634 19.9512 34.3023 20.6169L20.6432 34.298C19.9773 33.9576 19.2245 33.7642 18.4269 33.7642C15.7301 33.7642 13.5366 35.9612 13.5366 38.6601C13.5366 41.3595 15.7301 43.5556 18.4269 43.5556C21.1231 43.5556 23.3166 41.3595 23.3172 38.6601C23.3172 37.8647 23.1255 37.1138 22.788 36.449L36.4491 22.766C37.1138 23.1051 37.8654 23.2977 38.6612 23.2977C39.4571 23.2977 40.2085 23.1053 40.8732 22.7662L47.79 29.6961C47.4525 30.3608 47.2608 31.1117 47.2608 31.9068C47.2608 34.6067 49.4543 36.8028 52.1511 36.8028C54.8473 36.8028 57.0407 34.6067 57.0413 31.9068C57.0413 31.1115 56.8498 30.3606 56.5121 29.6961L70.1733 16.013C70.8382 16.3523 71.5897 16.5448 72.3858 16.5448C73.1815 16.5448 73.9326 16.3523 74.5974 16.0132L81.5143 22.9433C81.1767 23.608 80.985 24.3591 80.985 25.1544C80.985 27.8543 83.1784 30.0503 85.8752 30.0503C88.572 30.0503 90.7655 27.8543 90.7649 25.1544C90.7649 24.3593 90.5734 23.6084 90.2359 22.9438L103.898 9.25986C104.563 9.5991 105.314 9.79158 106.11 9.79158C108.807 9.79158 111 7.59554 111 4.8956C111 2.19643 108.807 0 106.11 0ZM18.4276 40.5162C17.4049 40.5162 16.573 39.6834 16.573 38.6594C16.573 37.6354 17.4049 36.8026 18.4276 36.8026C19.4504 36.8026 20.2823 37.6354 20.2823 38.6594C20.2823 39.6834 19.4504 40.5162 18.4276 40.5162ZM38.6618 16.5446C37.639 16.5446 36.8072 17.3774 36.8072 18.4014C36.8072 19.4256 37.6388 20.2584 38.6618 20.2582C39.6846 20.2582 40.5165 19.4254 40.5165 18.4014C40.5165 17.3774 39.6846 16.5446 38.6618 16.5446ZM52.1516 33.7638C51.1288 33.7638 50.297 32.931 50.297 31.907C50.297 30.883 51.1288 30.0502 52.1516 30.0502C53.1744 30.0502 54.0063 30.883 54.0063 31.907C54.0063 32.9311 53.1744 33.7638 52.1516 33.7638ZM72.3864 9.79177C71.363 9.79177 70.5311 10.6246 70.5311 11.6486C70.5311 12.6728 71.363 13.5056 72.3864 13.5054C73.4091 13.5054 74.241 12.6726 74.241 11.6486C74.241 10.6246 73.4088 9.79177 72.3864 9.79177ZM85.8756 27.0112C84.8522 27.0112 84.0204 26.1783 84.0204 25.1544C84.0204 24.1304 84.8522 23.2976 85.8756 23.2976C86.8984 23.2976 87.7303 24.1304 87.7303 25.1544C87.7303 26.1783 86.8986 27.0112 85.8756 27.0112ZM104.255 4.89598C104.255 5.91996 105.087 6.75279 106.11 6.75279C107.133 6.75279 107.965 5.91996 107.965 4.89598C107.965 3.872 107.133 3.03917 106.11 3.03917C105.087 3.03917 104.255 3.872 104.255 4.89598Z" fill="#27262A"/>
</g>
<rect x="4.06104" y="95.2777" width="90.6951" height="2.72222" fill="#27262A"/>
<rect x="4.06104" y="88.4722" width="2.70732" height="2.72222" fill="#27262A"/>
<rect x="10.8291" y="88.4722" width="2.70732" height="2.72222" fill="#27262A"/>
<rect x="17.5977" y="88.4722" width="2.70732" height="2.72222" fill="#27262A"/>
<rect x="24.3657" y="88.4722" width="2.70732" height="2.72222" fill="#27262A"/>
<rect x="31.1343" y="88.4722" width="2.70732" height="2.72222" fill="#27262A"/>
<rect x="36.5488" y="88.4722" width="2.70732" height="2.72222" fill="#27262A"/>
<rect x="44.6709" y="88.4722" width="2.70732" height="2.72222" fill="#27262A"/>
<rect x="50.0854" y="88.4722" width="2.70732" height="2.72222" fill="#27262A"/>
<rect x="58.2075" y="88.4722" width="2.70732" height="2.72222" fill="#27262A"/>
<rect x="64.9756" y="88.4722" width="2.70732" height="2.72222" fill="#27262A"/>
<rect x="70.3901" y="88.4722" width="2.70732" height="2.72222" fill="#27262A"/>
<rect x="78.5122" y="88.4722" width="2.70732" height="2.72222" fill="#27262A"/>
<rect x="83.9268" y="88.4722" width="2.70732" height="2.72222" fill="#27262A"/>
<rect x="90.6953" y="88.4722" width="2.70732" height="2.72222" fill="#27262A"/>
<rect x="4.06104" y="62.6111" width="2.70732" height="21.7778" fill="#27262A"/>
<rect x="10.8291" y="59.8889" width="2.70732" height="24.5" fill="#27262A"/>
<rect x="17.5977" y="49" width="2.70732" height="35.3889" fill="#27262A"/>
<rect x="24.3657" y="42.1945" width="2.70732" height="42.1944" fill="#27262A"/>
<rect x="31.1343" y="53.0833" width="2.70732" height="31.3056" fill="#27262A"/>
<rect x="36.5488" y="55.8055" width="2.70732" height="28.5833" fill="#27262A"/>
<rect x="44.6709" y="53.0833" width="2.70732" height="31.3056" fill="#27262A"/>
<rect x="50.0854" y="42.1945" width="2.70732" height="42.1944" fill="#27262A"/>
<rect x="58.2075" y="35.3889" width="2.70732" height="49" fill="#27262A"/>
<rect x="64.9756" y="46.2777" width="2.70732" height="38.1111" fill="#27262A"/>
<rect x="70.3901" y="49" width="2.70732" height="35.3889" fill="#27262A"/>
<rect x="78.5122" y="46.2777" width="2.70732" height="38.1111" fill="#27262A"/>
<rect x="83.9268" y="34.0277" width="2.70732" height="50.3611" fill="#27262A"/>
<rect x="90.6953" y="28.5833" width="2.70732" height="55.8056" fill="#27262A"/>
<path fill-rule="evenodd" clip-rule="evenodd" d="M92.5737 13.6111C89.8769 13.6111 87.6835 15.8081 87.6835 18.5071C87.6835 19.3043 87.8759 20.0567 88.2147 20.7224L74.5555 34.4037C73.8896 34.0631 73.1366 33.8695 72.339 33.8695C71.5412 33.8695 70.7882 34.0629 70.1223 34.4037L63.2078 27.4757C63.5468 26.8098 63.7392 26.0572 63.7392 25.2599C63.7392 22.5605 61.5458 20.3639 58.8495 20.3639C56.1528 20.3639 53.9593 22.5609 53.9593 25.2599C53.9593 26.0569 54.1515 26.8093 54.4904 27.4748L40.8313 41.1557C40.1655 40.8151 39.4124 40.6217 38.6146 40.6217C37.8167 40.6217 37.0636 40.8153 36.3975 41.1561L29.4832 34.2287C29.8224 33.5628 30.0149 32.81 30.0149 32.0127C30.0149 29.3133 27.8214 27.1167 25.1246 27.1167C22.4278 27.1167 20.2344 29.3137 20.2344 32.0127C20.2344 32.8098 20.4268 33.5623 20.7656 34.2279L7.10659 47.9091C6.44072 47.5687 5.68786 47.3752 4.89026 47.3752C2.19348 47.3752 0 49.5722 0 52.2712C0 54.9706 2.19348 57.1666 4.89026 57.1666C7.58648 57.1666 9.77996 54.9706 9.78053 52.2712C9.78053 51.4757 9.58884 50.7249 9.25134 50.0601L22.9125 36.3771C23.5772 36.7162 24.3287 36.9088 25.1246 36.9088C25.9205 36.9088 26.6718 36.7163 27.3366 36.3773L34.2534 43.3071C33.9159 43.9719 33.7242 44.7228 33.7242 45.5179C33.7242 48.2178 35.9177 50.4138 38.6144 50.4138C41.3106 50.4138 43.5041 48.2178 43.5047 45.5179C43.5047 44.7226 43.3132 43.9717 42.9755 43.3071L56.6367 29.6241C57.3016 29.9634 58.0531 30.1558 58.8492 30.1558C59.6449 30.1558 60.396 29.9634 61.0607 29.6243L67.9777 36.5543C67.64 37.2191 67.4483 37.9702 67.4483 38.7654C67.4483 41.4654 69.6418 43.6614 72.3386 43.6614C75.0354 43.6614 77.2289 41.4654 77.2283 38.7654C77.2283 37.9704 77.0368 37.2195 76.6993 36.5549L90.3612 22.8709C91.0261 23.2102 91.7776 23.4027 92.5737 23.4027C95.2699 23.4027 97.4634 21.2066 97.4634 18.5067C97.4634 15.8075 95.2699 13.6111 92.5737 13.6111ZM4.89103 54.1273C3.86824 54.1273 3.03638 53.2944 3.03638 52.2705C3.03638 51.2465 3.86824 50.4137 4.89103 50.4137C5.91381 50.4137 6.74567 51.2465 6.74567 52.2705C6.74567 53.2944 5.91381 54.1273 4.89103 54.1273ZM25.1252 30.1557C24.1024 30.1557 23.2705 30.9885 23.2705 32.0125C23.2705 33.0366 24.1022 33.8695 25.1252 33.8693C26.148 33.8693 26.9798 33.0364 26.9798 32.0125C26.9798 30.9885 26.148 30.1557 25.1252 30.1557ZM38.615 47.3749C37.5922 47.3749 36.7604 46.542 36.7604 45.5181C36.7604 44.4941 37.5922 43.6612 38.615 43.6612C39.6378 43.6612 40.4697 44.4941 40.4697 45.5181C40.4697 46.5422 39.6378 47.3749 38.615 47.3749ZM58.8497 23.4029C57.8264 23.4029 56.9945 24.2357 56.9945 25.2597C56.9945 26.2838 57.8264 27.1167 58.8497 27.1165C59.8725 27.1165 60.7044 26.2837 60.7044 25.2597C60.7044 24.2357 59.8721 23.4029 58.8497 23.4029ZM72.339 40.6223C71.3156 40.6223 70.4838 39.7894 70.4838 38.7654C70.4838 37.7415 71.3156 36.9086 72.339 36.9086C73.3618 36.9086 74.1936 37.7415 74.1936 38.7654C74.1936 39.7894 73.362 40.6223 72.339 40.6223ZM90.7185 18.5071C90.7185 19.531 91.5504 20.3639 92.5737 20.3639C93.5965 20.3639 94.4284 19.531 94.4284 18.5071C94.4284 17.4831 93.5961 16.6503 92.5737 16.6503C91.5504 16.6503 90.7185 17.4831 90.7185 18.5071Z" fill="#27262A"/>
</svg>
