<svg width="63" height="63" viewBox="0 0 63 63" fill="none" xmlns="http://www.w3.org/2000/svg">
<g opacity="0.4">
<g opacity="0.26">
<path fill-rule="evenodd" clip-rule="evenodd" d="M41.4634 0H18.0307L9.99996 8.06865V52.6829H41.4634V50.8864H11.7881V9.33722H19.2948V1.7965H41.4634V0ZM13.0543 7.54082L17.5069 3.06692V7.54082H13.0543Z" fill="white"/>
<path fill-rule="evenodd" clip-rule="evenodd" d="M31.9515 47.5609H37.8052V41.7073H31.9515V47.5609ZM33.7685 43.524H35.9887V45.7443H33.7685V43.524Z" fill="white"/>
<rect width="8.04878" height="1.46341" transform="matrix(-1 0 0 1 30.4878 41.7073)" fill="white"/>
<rect width="16.0976" height="1.46341" transform="matrix(-1 0 0 1 30.4878 45.366)" fill="white"/>
<path fill-rule="evenodd" clip-rule="evenodd" d="M37.8052 33.6584H31.9515V39.5121H37.8052V33.6584ZM35.9887 37.6957H33.7685V35.4754H35.9887V37.6957Z" fill="white"/>
<rect width="8.04878" height="1.46341" transform="matrix(-1 0 0 1 30.4878 33.6584)" fill="white"/>
<rect width="16.0976" height="1.46341" transform="matrix(-1 0 0 1 30.4878 37.3171)" fill="white"/>
<rect width="8.04878" height="1.46341" transform="matrix(-1 0 0 1 30.4878 25.6099)" fill="white"/>
<rect width="16.0976" height="1.46341" transform="matrix(-1 0 0 1 30.4878 30)" fill="white"/>
<path d="M35.7976 31.4635L31.9513 27.6315L33.2452 26.3416L35.7976 28.8845L37.243 27.4442L38.5366 28.7331L35.7976 31.4635Z" fill="white"/>
<rect width="8.04878" height="1.46341" transform="matrix(-1 0 0 1 30.4878 17.561)" fill="white"/>
<rect width="16.0976" height="1.46341" transform="matrix(-1 0 0 1 30.4878 21.9512)" fill="white"/>
<path d="M35.7976 23.4147L31.9513 19.5828L33.2452 18.2927L35.7976 20.8356L37.243 19.3951L38.5366 20.6844L35.7976 23.4147Z" fill="white"/>
<rect width="8.04878" height="1.46341" transform="matrix(-1 0 0 1 30.4878 9.51221)" fill="white"/>
<rect width="16.0976" height="1.46341" transform="matrix(-1 0 0 1 30.4878 13.9023)" fill="white"/>
<path d="M35.7976 15.3658L31.9513 11.5334L33.2452 10.2439L35.7976 12.7865L37.243 11.3461L38.5366 12.6353L35.7976 15.3658Z" fill="white"/>
<rect width="2.19512" height="1.46341" transform="matrix(-1 0 0 1 38.5366 5.85376)" fill="white"/>
<rect width="2.19512" height="1.46341" transform="matrix(-1 0 0 1 34.1465 5.85376)" fill="white"/>
<rect width="2.19512" height="1.46341" transform="matrix(-1 0 0 1 30.4878 5.85376)" fill="white"/>
<path fill-rule="evenodd" clip-rule="evenodd" d="M45.8539 6.21936C45.8543 9.64908 48.644 12.439 52.0735 12.439C55.5029 12.439 58.293 9.64888 58.293 6.21936C58.293 2.78984 55.5029 0 52.0735 0C48.644 0 45.8539 2.79015 45.8539 6.21936ZM47.6669 6.21956C47.6669 3.7897 49.6439 1.81287 52.0735 1.81287C54.5033 1.81287 56.48 3.7898 56.48 6.21967C56.48 8.64974 54.5033 10.6263 52.0735 10.6263C49.6437 10.6263 47.6669 8.64974 47.6669 6.21956Z" fill="white"/>
<rect width="1.46341" height="15.3659" transform="matrix(-1 0 0 1 52.439 37.3171)" fill="white"/>
<path d="M40.7322 34.6487H40.7319V20.4884C40.7319 18.7297 41.4075 17.0757 42.634 15.8318C43.8605 14.5875 45.4912 13.9023 47.2257 13.9023H48.5088L51.7074 17.1461L54.9061 13.9023H56.1893C57.9238 13.9023 59.5545 14.5875 60.781 15.8318C62.0075 17.0757 62.6831 18.7299 62.6831 20.4884V34.6487H58.2013V52.6828H56.4172V30.7152H58.2013V32.8391H60.8993V20.4881C60.8993 19.2128 60.4091 18.0132 59.5199 17.1108C58.6301 16.2087 57.4473 15.7116 56.1896 15.7116H55.6451L51.7075 19.7055L47.7705 15.712H47.226C45.968 15.712 44.7856 16.2087 43.8958 17.1111C43.0065 18.0133 42.5163 19.2131 42.5163 20.4884V32.8391H45.2135V30.7152H46.9976V52.6827H45.2135V34.6487H40.7322Z" fill="white"/>
<rect width="1.46341" height="2.19512" transform="matrix(-1 0 0 1 52.439 21.2195)" fill="white"/>
<rect width="1.46341" height="2.19512" transform="matrix(-1 0 0 1 52.439 25.6099)" fill="white"/>
</g>
<path fill-rule="evenodd" clip-rule="evenodd" d="M31.4634 10H8.03074L-3.62396e-05 18.0687V62.6829H31.4634V60.8864H1.78811V19.3372H9.29482V11.7965H31.4634V10ZM3.05434 17.5408L7.50688 13.0669V17.5408H3.05434Z" fill="white"/>
<path fill-rule="evenodd" clip-rule="evenodd" d="M21.9515 57.5609H27.8052V51.7073H21.9515V57.5609ZM23.7685 53.524H25.9887V55.7443H23.7685V53.524Z" fill="white"/>
<rect width="8.04878" height="1.46341" transform="matrix(-1 0 0 1 20.4878 51.7073)" fill="white"/>
<rect width="16.0976" height="1.46341" transform="matrix(-1 0 0 1 20.4878 55.366)" fill="white"/>
<path fill-rule="evenodd" clip-rule="evenodd" d="M27.8052 43.6584H21.9515V49.5121H27.8052V43.6584ZM25.9887 47.6957H23.7685V45.4754H25.9887V47.6957Z" fill="white"/>
<rect width="8.04878" height="1.46341" transform="matrix(-1 0 0 1 20.4878 43.6584)" fill="white"/>
<rect width="16.0976" height="1.46341" transform="matrix(-1 0 0 1 20.4878 47.3171)" fill="white"/>
<rect width="8.04878" height="1.46341" transform="matrix(-1 0 0 1 20.4878 35.6099)" fill="white"/>
<rect width="16.0976" height="1.46341" transform="matrix(-1 0 0 1 20.4878 40)" fill="white"/>
<path d="M25.7976 41.4635L21.9513 37.6315L23.2452 36.3416L25.7976 38.8845L27.243 37.4442L28.5366 38.7331L25.7976 41.4635Z" fill="white"/>
<rect width="8.04878" height="1.46341" transform="matrix(-1 0 0 1 20.4878 27.561)" fill="white"/>
<rect width="16.0976" height="1.46341" transform="matrix(-1 0 0 1 20.4878 31.9512)" fill="white"/>
<path d="M25.7976 33.4147L21.9513 29.5828L23.2452 28.2927L25.7976 30.8356L27.243 29.3951L28.5366 30.6844L25.7976 33.4147Z" fill="white"/>
<rect width="8.04878" height="1.46341" transform="matrix(-1 0 0 1 20.4878 19.5122)" fill="white"/>
<rect width="16.0976" height="1.46341" transform="matrix(-1 0 0 1 20.4878 23.9023)" fill="white"/>
<path d="M25.7976 25.3658L21.9513 21.5334L23.2452 20.2439L25.7976 22.7865L27.243 21.3461L28.5366 22.6353L25.7976 25.3658Z" fill="white"/>
<rect width="2.19512" height="1.46341" transform="matrix(-1 0 0 1 28.5366 15.8538)" fill="white"/>
<rect width="2.19512" height="1.46341" transform="matrix(-1 0 0 1 24.1465 15.8538)" fill="white"/>
<rect width="2.19512" height="1.46341" transform="matrix(-1 0 0 1 20.4878 15.8538)" fill="white"/>
<path fill-rule="evenodd" clip-rule="evenodd" d="M35.8539 16.2194C35.8543 19.6491 38.644 22.439 42.0735 22.439C45.5029 22.439 48.293 19.6489 48.293 16.2194C48.293 12.7898 45.5029 10 42.0735 10C38.644 10 35.8539 12.7901 35.8539 16.2194ZM37.6669 16.2196C37.6669 13.7897 39.6439 11.8129 42.0735 11.8129C44.5033 11.8129 46.48 13.7898 46.48 16.2197C46.48 18.6497 44.5033 20.6263 42.0735 20.6263C39.6437 20.6263 37.6669 18.6497 37.6669 16.2196Z" fill="white"/>
<rect width="1.46341" height="15.3659" transform="matrix(-1 0 0 1 42.439 47.3171)" fill="white"/>
<path d="M30.7322 44.6487H30.7319V30.4884C30.7319 28.7297 31.4075 27.0757 32.634 25.8318C33.8605 24.5875 35.4912 23.9023 37.2257 23.9023H38.5088L41.7074 27.1461L44.9061 23.9023H46.1893C47.9238 23.9023 49.5545 24.5875 50.781 25.8318C52.0075 27.0757 52.6831 28.7299 52.6831 30.4884V44.6487H48.2013V62.6828H46.4172V40.7152H48.2013V42.8391H50.8993V30.4881C50.8993 29.2128 50.4091 28.0132 49.5199 27.1108C48.6301 26.2087 47.4473 25.7116 46.1896 25.7116H45.6451L41.7075 29.7055L37.7705 25.712H37.226C35.968 25.712 34.7856 26.2087 33.8958 27.1111C33.0065 28.0133 32.5163 29.2131 32.5163 30.4884V42.8391H35.2135V40.7152H36.9976V62.6827H35.2135V44.6487H30.7322Z" fill="white"/>
<rect width="1.46341" height="2.19512" transform="matrix(-1 0 0 1 42.439 31.2195)" fill="white"/>
<rect width="1.46341" height="2.19512" transform="matrix(-1 0 0 1 42.439 35.6099)" fill="white"/>
</g>
</svg>
