<svg width="70" height="70" xmlns="http://www.w3.org/2000/svg">

 <g>
  <title>background</title>
  <rect fill="none" id="canvas_background" height="602" width="802" y="-1" x="-1"/>
 </g>
 <g>
  <title>Layer 1</title>
  <g stroke="null" id="svg_36">
   <g stroke="null" transform="matrix(0.9545035000440301,0,0,1.1224656092350984,13.07757723056919,-2.248914034970318) " id="svg_25" opacity="0.26">
    <rect stroke="null" id="svg_26" fill="#FB7710" height="1.93509" width="1.93509" y="23.87488" x="10.40138"/>
    <rect stroke="null" id="svg_27" fill="#FB7710" height="1.93509" width="1.93509" y="23.87488" x="14.27248"/>
    <rect stroke="null" id="svg_28" fill="#FB7710" height="1.93509" width="1.93509" y="23.87488" x="18.14118"/>
    <path stroke="null" id="svg_29" fill="#FB7710" d="m50.26398,16.75058c2.0877,0.4458 3.6576,2.302 3.6576,4.5187c0,2.2183 -1.5702,4.0761 -3.6576,4.5223l0,15.5948l-0.0004,0l-6.3547,0l0,-3.2654l-15.9199,-6.5642l0,2.4661l-8.7744,0l0,1.0752l3.2277,0l0,6.2352l-3.2277,0l0,8.6429l-7.956,0l0,-15.9534l-8.77055,0l0,-5.8922l-4.41965,0l0,-13.7174l4.41965,0l0,-5.89309l25.50095,0l0,2.469l15.9199,-6.56701l0,-3.26538l6.3551,0l0,15.59388zm-29.7571,20.2826l-1.0749,0l0,2.365l1.0749,0l0,-2.365zm-20.50341,-10.8373l0,-9.8475l2.48456,0l0,9.8475l-2.48456,0zm13.19041,21.8454l4.0853,0l0,-14.0184l-4.0853,0l0,14.0184zm12.8602,-15.9538l-21.63061,0l0,-21.63207l21.63061,0l0,1.33197l-0.0003,0.0001l0,18.9716l0.0003,0.0001l0,1.3283zm24.2099,-8.3086c1.0067,-0.3893 1.7222,-1.3674 1.7222,-2.5096c0,-1.1403 -0.7151,-2.1169 -1.7222,-2.5059l0,5.0155zm-22.2748,5.6852l0,-16.3813l15.9197,-6.56737l0,29.51277l-15.9197,-6.5641zm17.8548,9.9872l2.4845,0l0,-36.35938l-2.4845,0l0,0.53205l0,35.29493l0,0.5324z" clip-rule="evenodd" fill-rule="evenodd"/>
    <rect stroke="null" id="svg_30" fill="#FB7710" height="1.93509" width="2.57614" y="20.30278" x="55.37648"/>
    <path stroke="null" id="svg_31" fill="#FB7710" d="m56.30718,26.43528l-2.2315,-1.2883l0.9676,-1.6758l2.2314,1.2884l-0.9675,1.6757z"/>
    <path stroke="null" id="svg_32" fill="#FB7710" d="m52.78858,29.25278l-1.2908,-2.2326l1.6749,-0.9684l1.2908,2.2327l-1.6749,0.9683z"/>
    <path stroke="null" id="svg_33" fill="#FB7710" d="m57.28028,17.78588l-2.232,1.289l-0.9677,-1.6756l2.2321,-1.289l0.9676,1.6756z"/>
    <path stroke="null" id="svg_34" fill="#FB7710" d="m52.78618,13.29288l1.6747,0.9687l-1.2909,2.2317l-1.6748,-0.9687l1.291,-2.2317z"/>
    <path stroke="null" id="svg_35" fill="#FB7710" d="m23.73238,22.58408l-16.98675,0l0,-9.246l16.98675,0l0,9.246zm-1.9354,-7.3109l-13.1161,0l0,5.3757l13.1161,0l0,-5.3757z" clip-rule="evenodd" fill-rule="evenodd"/>
   </g>
  </g>
  <g stroke="null" transform="rotate(0.03974096104502678 29.246406555141434,38.57471847533926) " id="svg_50">
   <rect stroke="null" transform="matrix(0.9695533016546592,0,0,1.1005589302354637,43.37027019032948,58.19497514134905) " id="svg_40" fill="#FB7710" height="1.93509" width="1.93509" y="-19.5191" x="-32.17651"/>
   <rect stroke="null" transform="matrix(0.9695533016546592,0,0,1.1005589302354637,43.37027019032948,58.19497514134905) " id="svg_41" fill="#FB7710" height="1.93509" width="1.93509" y="-19.5191" x="-28.30541"/>
   <rect stroke="null" transform="matrix(0.9695533016546592,0,0,1.1005589302354637,43.37027019032948,58.19497514134905) " id="svg_42" fill="#FB7710" height="1.93509" width="1.93509" y="-19.5191" x="-24.43671"/>
   <path stroke="null" id="svg_43" fill="#FB7710" d="m50.82234,28.87235c2.02414,0.49063 3.54624,2.53349 3.54624,4.9731c0,2.44137 -1.52239,4.48599 -3.54624,4.97706l0,17.163l-0.00039,0l-6.16122,0l0,-3.59377l-15.43519,-7.22429l0,2.71409l-8.50725,0l0,1.18332l3.12943,0l0,6.86221l-3.12943,0l0,9.51202l-7.71377,0l0,-17.55766l-8.50352,0l0,-6.48471l-4.28509,0l0,-15.09681l4.28509,0l0,-6.48569l24.72453,0l0,2.71728l15.43519,-7.22738l0,-3.59374l6.16161,0l0,17.16198zm-28.85109,22.3222l-1.04217,0l0,2.60282l1.04217,0l0,-2.60282zm-19.87915,-11.92709l0,-10.83775l2.40891,0l0,10.83775l-2.40891,0zm12.78881,24.04215l3.96092,0l0,-15.42808l-3.96092,0l0,15.42808zm12.46865,-17.5581l-20.97203,0l0,-23.80737l20.97203,0l0,1.46591l-0.00029,0.00011l0,20.87936l0.00029,0.00011l0,1.46187zm23.47279,-9.1441c0.97605,-0.42845 1.66976,-1.5049 1.66976,-2.76196c0,-1.25497 -0.69333,-2.32977 -1.66976,-2.75789l0,5.51985zm-21.59661,6.2569l0,-18.02859l15.435,-7.22778l0,32.48054l-15.435,-7.22418zm17.31118,10.9915l2.40886,0l0,-40.01564l-2.40886,0l0,0.58555l0,38.84415l0,0.58594z" clip-rule="evenodd" fill-rule="evenodd"/>
   <rect stroke="null" transform="matrix(0.9695533016546592,0,0,1.1005589302354637,43.37027019032948,58.19497514134905) " id="svg_44" fill="#FB7710" height="1.93509" width="2.57614" y="-23.0912" x="12.79859"/>
   <path stroke="null" id="svg_45" fill="#FB7710" d="m56.68155,39.53093l-2.16356,-1.41785l0.93814,-1.84432l2.16346,1.41796l-0.93804,1.84421z"/>
   <path stroke="null" id="svg_46" fill="#FB7710" d="m53.27008,42.63175l-1.2515,-2.45711l1.6239,-1.06578l1.2515,2.45722l-1.6239,1.06567z"/>
   <path stroke="null" id="svg_47" fill="#FB7710" d="m57.62502,30.01175l-2.16404,1.41862l-0.93824,-1.8441l2.16414,-1.41862l0.93814,1.8441z"/>
   <path stroke="null" id="svg_48" fill="#FB7710" d="m53.26775,25.06694l1.62371,1.06611l-1.2516,2.45612l-1.62381,-1.06611l1.25169,-2.45612z"/>
   <path stroke="null" id="svg_49" fill="#FB7710" d="m25.09854,35.29246l-16.46956,0l0,-10.17577l16.46956,0l0,10.17577zm-1.87647,-8.04608l-12.71676,0l0,5.91627l12.71676,0l0,-5.91627z" clip-rule="evenodd" fill-rule="evenodd"/>
  </g>
 </g>
</svg>