<svg width="61" height="59" viewBox="0 0 61 59" fill="none" xmlns="http://www.w3.org/2000/svg">
<g opacity="0.403018">
<g opacity="0.26">
<path d="M23 28H25V49H23V28Z" fill="white"/>
<path d="M14 28H16V49H14V28Z" fill="white"/>
<path d="M19 32H21V49H19V32Z" fill="white"/>
<path d="M27.9443 32H23.7224V29.889H26.889V19.3333C26.889 17.0047 24.9953 15.111 22.6667 15.111H16.3333C14.0047 15.111 12.111 17.0047 12.111 19.3333V29.889H15.2776V32H11.0557C10.4728 32 10 31.528 10 30.9443V19.3333C10 15.8404 12.8404 13 16.3333 13H22.6667C26.1596 13 29 15.8404 29 19.3333V30.9443C29 31.528 28.5272 32 27.9443 32Z" fill="white"/>
<path fill-rule="evenodd" clip-rule="evenodd" d="M14 5.4998C14 8.53268 16.4674 11 19.5 11C22.5326 11 25 8.53268 25 5.4998C25 2.46732 22.5326 0 19.5 0C16.4674 0 14 2.46732 14 5.4998ZM16.1999 5.4998C16.1999 3.68063 17.6804 2.19984 19.5 2.19984C21.3196 2.19984 22.8001 3.68063 22.8001 5.4998C22.8001 7.31937 21.3196 8.79976 19.5 8.79976C17.6804 8.79976 16.1999 7.31937 16.1999 5.4998Z" fill="white"/>
<path d="M19 17H21V19H19V17Z" fill="white"/>
<path d="M41.5 31C38.4674 31 36 28.5326 36 25.5C36 22.4674 38.4674 20 41.5 20C44.5326 20 47 22.4674 47 25.5C47 26.1083 46.5085 26.6002 45.9002 26.6002C45.292 26.6002 44.8001 26.1083 44.8001 25.5C44.8001 23.6804 43.3196 22.1999 41.5 22.1999C39.6804 22.1999 38.1999 23.6804 38.1999 25.5C38.1999 27.3196 39.6804 28.8001 41.5 28.8001C42.1083 28.8001 42.6002 29.292 42.6002 29.9002C42.6002 30.5085 42.1083 31 41.5 31Z" fill="white"/>
<path d="M41.5 40C38.4674 40 36 37.5327 36 34.4998C36 33.8915 36.4915 33.4001 37.0998 33.4001C37.708 33.4001 38.1999 33.8915 38.1999 34.4998C38.1999 36.3194 39.6804 37.7998 41.5 37.7998C43.3196 37.7998 44.8001 36.3194 44.8001 34.4998C44.8001 32.6806 43.3196 31.1998 41.5 31.1998C40.8917 31.1998 40.3998 30.7084 40.3998 30.1001C40.3998 29.4919 40.8917 29 41.5 29C44.5326 29 47 31.4673 47 34.4998C47 37.5327 44.5326 40 41.5 40Z" fill="white"/>
<path d="M42 22C41.4471 22 41 21.5521 41 20.9999V19.0001C41 18.4482 41.4471 18 42 18C42.5529 18 43 18.4482 43 19.0001V20.9999C43 21.5521 42.5529 22 42 22Z" fill="white"/>
<path d="M42 41C41.4471 41 41 40.5529 41 39.9999V38.0001C41 37.4471 41.4471 37 42 37C42.5529 37 43 37.4471 43 38.0001V39.9999C43 40.5529 42.5529 41 42 41Z" fill="white"/>
<path d="M41.8388 49C36.7495 49 31.9452 47.0154 28.312 43.4127C27.896 43.0003 27.896 42.3331 28.312 41.9202C28.7283 41.5074 29.4012 41.5074 29.8175 41.9202C33.0492 45.124 37.3179 46.8886 41.8388 46.8886C51.23 46.8886 58.8711 39.3121 58.8711 30C58.8711 20.6879 51.23 13.111 41.8388 13.111C38.9923 13.111 36.297 13.7793 33.8273 15.0963C33.3069 15.3731 32.6637 15.1798 32.3861 14.6669C32.1082 14.1539 32.3019 13.513 32.8192 13.2378C35.5625 11.7735 38.6827 11 41.8388 11C52.4041 11 61 19.5236 61 30C61 40.4764 52.4041 49 41.8388 49Z" fill="white"/>
<path d="M32 29H34V31H32V29Z" fill="white"/>
<path d="M49 29H51V31H49L49 29Z" fill="white"/>
</g>
<path d="M13 38H15V59H13V38Z" fill="white"/>
<path d="M4 38H6V59H4V38Z" fill="white"/>
<path d="M9 42H11V59H9V42Z" fill="white"/>
<path d="M17.9443 42H13.7224V39.889H16.889V29.3333C16.889 27.0047 14.9953 25.111 12.6667 25.111H6.33333C4.00472 25.111 2.11098 27.0047 2.11098 29.3333V39.889H5.27765V42H1.05568C0.472758 42 0 41.528 0 40.9443V29.3333C0 25.8404 2.84041 23 6.33333 23H12.6667C16.1596 23 19 25.8404 19 29.3333V40.9443C19 41.528 18.5272 42 17.9443 42Z" fill="white"/>
<path fill-rule="evenodd" clip-rule="evenodd" d="M4 15.4998C4 18.5327 6.46741 21 9.5 21C12.5326 21 15 18.5327 15 15.4998C15 12.4673 12.5326 10 9.5 10C6.46741 10 4 12.4673 4 15.4998ZM6.19992 15.4998C6.19992 13.6806 7.68036 12.1998 9.5 12.1998C11.3196 12.1998 12.8001 13.6806 12.8001 15.4998C12.8001 17.3194 11.3196 18.7998 9.5 18.7998C7.68036 18.7998 6.19992 17.3194 6.19992 15.4998Z" fill="white"/>
<path d="M9 27H11V29H9V27Z" fill="white"/>
<path d="M31.5 41C28.4674 41 26 38.5326 26 35.5C26 32.4674 28.4674 30 31.5 30C34.5326 30 37 32.4674 37 35.5C37 36.1083 36.5085 36.6002 35.9002 36.6002C35.292 36.6002 34.8001 36.1083 34.8001 35.5C34.8001 33.6804 33.3196 32.1999 31.5 32.1999C29.6804 32.1999 28.1999 33.6804 28.1999 35.5C28.1999 37.3196 29.6804 38.8001 31.5 38.8001C32.1083 38.8001 32.6002 39.292 32.6002 39.9002C32.6002 40.5085 32.1083 41 31.5 41Z" fill="white"/>
<path d="M31.5 50C28.4674 50 26 47.5327 26 44.4998C26 43.8915 26.4915 43.4001 27.0998 43.4001C27.708 43.4001 28.1999 43.8915 28.1999 44.4998C28.1999 46.3194 29.6804 47.7998 31.5 47.7998C33.3196 47.7998 34.8001 46.3194 34.8001 44.4998C34.8001 42.6806 33.3196 41.1998 31.5 41.1998C30.8917 41.1998 30.3998 40.7084 30.3998 40.1001C30.3998 39.4919 30.8917 39 31.5 39C34.5326 39 37 41.4673 37 44.4998C37 47.5327 34.5326 50 31.5 50Z" fill="white"/>
<path d="M32 32C31.4471 32 31 31.5521 31 30.9999V29.0001C31 28.4482 31.4471 28 32 28C32.5529 28 33 28.4482 33 29.0001V30.9999C33 31.5521 32.5529 32 32 32Z" fill="white"/>
<path d="M32 51C31.4471 51 31 50.5529 31 49.9999V48.0001C31 47.4471 31.4471 47 32 47C32.5529 47 33 47.4471 33 48.0001V49.9999C33 50.5529 32.5529 51 32 51Z" fill="white"/>
<path d="M31.8388 59C26.7495 59 21.9452 57.0154 18.312 53.4127C17.896 53.0003 17.896 52.3331 18.312 51.9202C18.7283 51.5074 19.4012 51.5074 19.8175 51.9202C23.0492 55.124 27.3179 56.8886 31.8388 56.8886C41.23 56.8886 48.8711 49.3121 48.8711 40C48.8711 30.6879 41.23 23.111 31.8388 23.111C28.9923 23.111 26.297 23.7793 23.8273 25.0963C23.3069 25.3731 22.6637 25.1798 22.3861 24.6669C22.1082 24.1539 22.3019 23.513 22.8192 23.2378C25.5625 21.7735 28.6827 21 31.8388 21C42.4041 21 51 29.5236 51 40C51 50.4764 42.4041 59 31.8388 59Z" fill="white"/>
<path d="M22 39H24V41H22V39Z" fill="white"/>
<path d="M39 39H41V41H39L39 39Z" fill="white"/>
</g>
</svg>
