<svg width="63" height="63" viewBox="0 0 63 63" fill="none" xmlns="http://www.w3.org/2000/svg">
<g opacity="0.4">
<g opacity="0.26">
<path fill-rule="evenodd" clip-rule="evenodd" d="M26.0977 10.5608C26.0974 13.7882 23.6359 16.4146 20.61 16.4146C17.5841 16.4146 15.1221 13.7885 15.1221 10.5608C15.1221 7.33341 17.5841 4.70728 20.61 4.70728C23.6361 4.70728 26.0977 7.3333 26.0977 10.5608ZM24.2339 10.5608C24.2339 8.4292 22.6081 6.69515 20.61 6.69515C18.6118 6.69515 16.9858 8.42887 16.9858 10.5608C16.9858 12.6927 18.6118 14.4264 20.61 14.4264C22.6081 14.4264 24.2339 12.6923 24.2339 10.5608Z" fill="white"/>
<rect x="19.5122" y="39.8293" width="1.46341" height="13.1707" fill="white"/>
<path d="M42.9268 17.8782H16.0019C14.398 17.8782 12.8908 18.5154 11.7577 19.6727C10.6244 20.8303 10 22.3685 10 24.004V36.8827H14.1895V53.0001H16.0747V31.9474H14.1895V34.9583H11.8852V24.004C11.8852 22.8824 12.3135 21.8271 13.0914 21.0332C13.868 20.2395 14.9017 19.8027 16.0019 19.8027H41.0419V22.1545H24.3078V52.9996H26.193V24.0783H42.9268V17.8782Z" fill="white"/>
<path fill-rule="evenodd" clip-rule="evenodd" d="M62.6827 10.1412H49.6686L40.0251 0.317139L30.3829 10.1412H29.7559V12.0582H60.8012V14.1642H29.7559V16.0812H58.8267V40.3114H29.7559V42.2282H39.0856V46.3948C37.7171 46.8085 36.7154 48.101 36.7154 49.6277C36.7154 51.4872 38.2004 53.0001 40.0251 53.0001C41.8501 53.0001 43.3356 51.4869 43.3356 49.6277C43.3356 48.1017 42.3347 46.8098 40.9669 46.3954V42.2282H60.7084V16.0813H62.6827V10.1412ZM40.0251 3.02777L47.008 10.1412H33.0432L40.0251 3.02777ZM40.0251 51.0829C40.813 51.0829 41.454 50.4299 41.454 49.6275C41.454 48.8251 40.813 48.1721 40.0251 48.1721C39.2377 48.1721 38.5967 48.8251 38.5967 49.6275C38.5967 50.4299 39.2377 51.0829 40.0251 51.0829Z" fill="white"/>
<rect x="29.7559" y="33.9756" width="1.46341" height="3.65854" fill="white"/>
<rect x="34.1465" y="30.3171" width="1.46341" height="7.31707" fill="white"/>
<rect x="38.5366" y="33.2439" width="1.46341" height="4.39024" fill="white"/>
<rect x="42.1953" y="28.8538" width="1.46341" height="8.78049" fill="white"/>
<rect x="46.5854" y="31.0488" width="1.46341" height="6.58537" fill="white"/>
<rect x="50.9756" y="26.6587" width="1.46341" height="10.9756" fill="white"/>
<rect x="54.6343" y="28.1221" width="1.46341" height="9.5122" fill="white"/>
<rect x="45.8535" y="18.6099" width="2.19512" height="1.46341" fill="white"/>
<rect x="50.2441" y="18.6099" width="2.19512" height="1.46341" fill="white"/>
<rect x="54.6343" y="18.6099" width="2.19512" height="1.46341" fill="white"/>
<rect x="45.8535" y="23" width="10.2439" height="1.46341" fill="white"/>
</g>
<path fill-rule="evenodd" clip-rule="evenodd" d="M16.0977 20.5608C16.0974 23.7882 13.6359 26.4146 10.61 26.4146C7.58408 26.4146 5.12207 23.7885 5.12207 20.5608C5.12207 17.3334 7.58408 14.7073 10.61 14.7073C13.6361 14.7073 16.0977 17.3333 16.0977 20.5608ZM14.2339 20.5608C14.2339 18.4292 12.6081 16.6952 10.61 16.6952C8.61184 16.6952 6.98579 18.4289 6.98579 20.5608C6.98579 22.6927 8.61184 24.4264 10.61 24.4264C12.6081 24.4264 14.2339 22.6923 14.2339 20.5608Z" fill="white"/>
<rect x="9.51221" y="49.8293" width="1.46341" height="13.1707" fill="white"/>
<path d="M32.9268 27.8782H6.00192C4.39795 27.8782 2.89082 28.5154 1.7577 29.6727C0.624377 30.8303 0 32.3685 0 34.004V46.8827H4.18949V63.0001H6.07473V41.9474H4.18949V44.9583H1.88525V34.004C1.88525 32.8824 2.31348 31.8271 3.09138 31.0332C3.86795 30.2395 4.90166 29.8027 6.00192 29.8027H31.0419V32.1545H14.3078V62.9996H16.193V34.0783H32.9268V27.8782Z" fill="white"/>
<path fill-rule="evenodd" clip-rule="evenodd" d="M52.6827 20.1412H39.6686L30.0251 10.3171L20.3829 20.1412H19.7559V22.0582H50.8012V24.1642H19.7559V26.0812H48.8267V50.3114H19.7559V52.2282H29.0856V56.3948C27.7171 56.8085 26.7154 58.101 26.7154 59.6277C26.7154 61.4872 28.2004 63.0001 30.0251 63.0001C31.8501 63.0001 33.3356 61.4869 33.3356 59.6277C33.3356 58.1017 32.3347 56.8098 30.9669 56.3954V52.2282H50.7084V26.0813H52.6827V20.1412ZM30.0251 13.0278L37.008 20.1412H23.0432L30.0251 13.0278ZM30.0251 61.0829C30.813 61.0829 31.454 60.4299 31.454 59.6275C31.454 58.8251 30.813 58.1721 30.0251 58.1721C29.2377 58.1721 28.5967 58.8251 28.5967 59.6275C28.5967 60.4299 29.2377 61.0829 30.0251 61.0829Z" fill="white"/>
<rect x="19.7559" y="43.9756" width="1.46341" height="3.65854" fill="white"/>
<rect x="24.1465" y="40.3171" width="1.46341" height="7.31707" fill="white"/>
<rect x="28.5366" y="43.2439" width="1.46341" height="4.39024" fill="white"/>
<rect x="32.1953" y="38.8538" width="1.46341" height="8.78049" fill="white"/>
<rect x="36.5854" y="41.0488" width="1.46341" height="6.58537" fill="white"/>
<rect x="40.9756" y="36.6587" width="1.46341" height="10.9756" fill="white"/>
<rect x="44.6343" y="38.1221" width="1.46341" height="9.5122" fill="white"/>
<rect x="35.8535" y="28.6099" width="2.19512" height="1.46341" fill="white"/>
<rect x="40.2441" y="28.6099" width="2.19512" height="1.46341" fill="white"/>
<rect x="44.6343" y="28.6099" width="2.19512" height="1.46341" fill="white"/>
<rect x="35.8535" y="33" width="10.2439" height="1.46341" fill="white"/>
</g>
</svg>
