<svg width="55" height="60" xmlns="http://www.w3.org/2000/svg">
 <!-- Created with Method Draw - http://github.com/duopixel/Method-Draw/ -->

 <g>
  <title>background</title>
  <rect fill="none" id="canvas_background" height="62" width="57" y="-1" x="-1"/>
  <g display="none" overflow="visible" y="0" x="0" height="100%" width="100%" id="canvasGrid">
   <rect fill="url(#gridpattern)" stroke-width="0" y="0" x="0" height="100%" width="100%"/>
  </g>
 </g>
 <g>
  <title>Layer 1</title>
  <g stroke="null" id="svg_15">
   <path stroke="null" id="svg_4" fill="#FB7710" d="m1.61799,32.55501l4.77698,-0.74652l0.09054,-0.56576c0.17145,-1.06926 0.44819,-2.12308 0.82268,-3.13273l0.19921,-0.5359l-3.76847,-3.07606l1.31978,-2.32791l4.50324,1.78531l0.35653,-0.44288c0.67335,-0.83629 1.43138,-1.6077 2.2528,-2.29405l0.43455,-0.36264l-1.7529,-4.58353l2.28631,-1.34394l3.02188,3.83559l0.52655,-0.20203c0.99189,-0.38168 2.02721,-0.66321 3.07742,-0.83743l0.55576,-0.09235l0.73339,-4.86287l2.64048,0l0.73319,4.86315l0.55576,0.09216c1.04942,0.17452 2.08522,0.45604 3.07791,0.83744l0.52635,0.20202l3.02109,-3.83577l2.2869,1.34412l-1.7529,4.58334l0.43455,0.36265c0.82141,0.68604 1.57954,1.45794 2.25283,2.29404l0.35656,0.44277l4.50297,-1.78501l1.32024,2.32791l-3.76839,3.07606l0.19919,0.5359c0.37494,1.00975 0.65153,2.06377 0.82251,3.13222l0.09051,0.56626l4.77717,0.74632l0,1.34386l1.55033,0l0,-2.69828l-4.98789,-0.77953c-0.1521,-0.78846 -0.35656,-1.56718 -0.61099,-2.32629l3.93579,-3.21306l-2.65032,-4.67323l-4.70395,1.86406c-0.5189,-0.60374 -1.07823,-1.17352 -1.67174,-1.70192l1.83089,-4.78785l-4.59089,-2.69834l-3.1559,4.00639c-0.74631,-0.25859 -1.51149,-0.46671 -2.28591,-0.62151l-0.76578,-5.07784l-5.30084,0l-0.76588,5.07813c-0.77462,0.15451 -1.5396,0.36292 -2.28541,0.62151l-3.1564,-4.00639l-4.59022,2.69882l1.83071,4.78737c-0.59351,0.52839 -1.15281,1.0982 -1.67172,1.70194l-4.70394,-1.86417l-2.65033,4.67304l3.9358,3.21316c-0.2545,0.75891 -0.45905,1.53762 -0.61103,2.32629l-4.98808,0.77973l0,2.69757l1.55061,0l0,-1.34335l-0.00009,0z"/>
   <path stroke="null" id="svg_5" fill="#FB7710" d="m16.43373,33.89867l1.55033,0c0,-2.4643 1.96968,-4.46927 4.39061,-4.46927c2.42082,0 4.39071,2.00497 4.39071,4.46927l1.55053,0c0,-3.33472 -2.66532,-6.04742 -5.94124,-6.04742c-3.27611,0 -5.94094,2.7127 -5.94094,6.04742z"/>
   <path stroke="null" id="svg_6" fill="#FB7710" d="m30.85814,33.89867l1.55033,0c0,-5.63156 -4.50138,-10.21315 -10.0335,-10.21315c-5.53232,0 -10.0335,4.58159 -10.0335,10.21315l1.55033,0c0,-4.76144 3.80505,-8.635 8.48287,-8.635c4.67782,0 8.48346,3.87356 8.48346,8.635z"/>
   <rect stroke="null" transform="matrix(0.993484561575415,0,0,1.0155364234586368,42.705827236074086,53.44814171855576) " id="svg_7" fill="#FB7710" height="1.554" width="6.01042" y="-14.84779" x="-4.02049"/>
   <path stroke="null" id="svg_8" fill="#FB7710" d="m36.81537,39.15874c0,1.5951 -1.27534,2.89326 -2.84236,2.89326c-1.29848,0 -2.39549,-0.89154 -2.73377,-2.10429l-31.17177,0l0,-1.57814l31.17187,0c0.33838,-1.21275 1.43539,-2.10389 2.73367,-2.10389c1.56702,0 2.84236,1.29786 2.84236,2.89306zm-1.55033,0.0002c0,-0.72509 -0.5797,-1.31512 -1.29203,-1.31512c-0.71233,0 -1.29203,0.58993 -1.29203,1.31512c0,0.72509 0.5797,1.31522 1.29203,1.31522c0.71233,0 1.29203,-0.59013 1.29203,-1.31522z" clip-rule="evenodd" fill-rule="evenodd"/>
   <rect stroke="null" transform="matrix(0.993484561575415,0,0,1.0155364234586368,42.705827236074086,53.44814171855576) " id="svg_9" fill="#FB7710" height="1.554" width="16.2967" y="-8.97749" x="-14.30909"/>
   <path stroke="null" id="svg_10" fill="#FB7710" d="m26.5948,45.12055c0,1.5952 -1.27504,2.89306 -2.84206,2.89306c-1.29848,0 -2.39579,-0.89144 -2.73407,-2.10439l-20.9512,0l0,-1.57814l20.9514,0c0.33848,-1.21275 1.43559,-2.10389 2.73387,-2.10389c1.56702,0 2.84206,1.29786 2.84206,2.89336zm-1.55003,0c0,-0.72509 -0.58,-1.31522 -1.29203,-1.31522c-0.70617,0 -1.2807,0.58007 -1.29113,1.29603l0,0.03849c0.01033,0.71585 0.58496,1.29593 1.29113,1.29593c0.71233,0 1.29203,-0.59013 1.29203,-1.31522z" clip-rule="evenodd" fill-rule="evenodd"/>
   <rect stroke="null" transform="matrix(0.993484561575415,0,0,1.0155364234586368,42.705827236074086,53.44814171855576) " id="svg_11" fill="#FB7710" height="1.554" width="33.0007" y="-3.10709" x="-31.01079"/>
   <path stroke="null" id="svg_12" fill="#FB7710" d="m10.00132,51.08205c0,1.5952 -1.27523,2.89336 -2.84231,2.89336c-1.29845,0 -2.39574,-0.89154 -2.73403,-2.1047l-4.35751,0l0,-1.57814l4.35769,0c0.33849,-1.21255 1.43567,-2.10358 2.73385,-2.10358c1.56708,0 2.84231,1.29786 2.84231,2.89306zm-1.5503,0.0001c0,-0.72509 -0.57997,-1.31512 -1.29201,-1.31512c-0.71231,0 -1.29201,0.59003 -1.29201,1.31512c0,0.72509 0.5797,1.31522 1.29201,1.31522c0.71232,0 1.29201,-0.59013 1.29201,-1.31522z" clip-rule="evenodd" fill-rule="evenodd"/>
   <rect stroke="null" transform="matrix(0.993484561575415,0,0,1.0155364234586368,42.705827236074086,53.44814171855576) " id="svg_13" fill="#FB7710" height="1.554" width="19.8226" y="2.76321" x="-17.83499"/>
   <path stroke="null" id="svg_14" fill="#FB7710" d="m17.51623,56.25448c0.33848,-1.21265 1.43539,-2.10368 2.73357,-2.10368c1.56712,0 2.84236,1.29786 2.84236,2.89336c0,1.5952 -1.27504,2.89306 -2.84236,2.89306c-1.29858,0 -2.39579,-0.89154 -2.73387,-2.1046l-17.44847,0l0,-1.57814l17.44877,0zm1.44155,0.78938c0,0.72489 0.5797,1.31522 1.29203,1.31522c0.71233,0 1.29203,-0.59013 1.29203,-1.31522c0,-0.72509 -0.5797,-1.31512 -1.29203,-1.31512c-0.71233,0 -1.29203,0.59033 -1.29203,1.31512z" clip-rule="evenodd" fill-rule="evenodd"/>
  </g>
  <g stroke="null" id="svg_31">
   <g stroke="null" transform="matrix(0.9966086186240602,0,0,1.0152116120620847,-63127.46090740663,-70084.71221190189) " id="svg_19" opacity="0.26">
    <path stroke="null" id="svg_20" fill="#FB7710" d="m63354.03944,69056.54397l4.80831,-0.7351l0.09113,-0.5571c0.17257,-1.0529 0.45113,-2.0906 0.82808,-3.0848l0.20052,-0.5277l-3.79318,-3.029l1.32844,-2.2923l4.53277,1.758l0.35887,-0.4361c0.67777,-0.8235 1.44077,-1.5831 2.26757,-2.25895l0.4374,-0.35709l-1.7644,-4.51341l2.3013,-1.32338l3.0417,3.77691l0.53,-0.19894c0.9984,-0.37584 2.0405,-0.65306 3.0976,-0.82462l0.5594,-0.09094l0.7382,-4.78847l2.6578,0l0.738,4.78875l0.5594,0.09075c1.0563,0.17185 2.0989,0.44906 3.0981,0.82463l0.5298,0.19893l3.0409,-3.77709l2.3019,1.32356l-1.7644,4.51322l0.4374,0.3571c0.8268,0.67554 1.5899,1.43564 2.2676,2.25894l0.3589,0.436l4.5325,-1.7577l1.3289,2.2923l-3.7931,3.029l0.2005,0.5277c0.3774,0.9943 0.6558,2.0322 0.8279,3.0843l0.0911,0.5576l4.8085,0.7349l0,1.3233l1.5605,0l0,-2.657l-5.0206,-0.7676c-0.1531,-0.7764 -0.3589,-1.5432 -0.615,-2.2907l3.9616,-3.1639l-2.6677,-4.60174l-4.7348,1.83554c-0.5223,-0.5945 -1.0853,-1.15557 -1.6827,-1.67588l1.8429,-4.7146l-4.621,-2.65706l-3.1766,3.9451c-0.7512,-0.25463 -1.5214,-0.45957 -2.3009,-0.612l-0.7708,-5.00016l-5.3356,0l-0.7709,5.00044c-0.7797,0.15215 -1.5497,0.35737 -2.3004,0.612l-3.1771,-3.9451l-4.62032,2.65753l1.84272,4.71413c-0.5974,0.52031 -1.16037,1.0814 -1.68268,1.6759l-4.73479,-1.83565l-2.66771,4.60155l3.96161,3.164c-0.25617,0.7473 -0.46206,1.5141 -0.61504,2.2907l-5.02079,0.7678l0,2.6563l1.56078,0l0,-1.3228l-0.00009,0z"/>
    <path stroke="null" id="svg_21" fill="#FB7710" d="m63368.95235,69057.86707l1.5605,0c0,-2.4266 1.9826,-4.4009 4.4194,-4.4009c2.4367,0 4.4195,1.9743 4.4195,4.4009l1.5607,0c0,-3.2837 -2.6828,-5.9549 -5.9802,-5.9549c-3.2976,0 -5.9799,2.6712 -5.9799,5.9549z"/>
    <path stroke="null" id="svg_22" fill="#FB7710" d="m63383.47135,69057.86707l1.5605,0c0,-5.5454 -4.5309,-10.0569 -10.0993,-10.0569c-5.5686,0 -10.0993,4.5115 -10.0993,10.0569l1.5605,0c0,-4.6886 3.83,-8.5029 8.5385,-8.5029c4.7085,0 8.5391,3.8143 8.5391,8.5029z"/>
    <rect stroke="null" id="svg_23" fill="#FB7710" height="1.554" width="6.01042" y="69062.26967" x="63391.37625"/>
    <path stroke="null" id="svg_24" fill="#FB7710" d="m63389.46765,69063.04667c0,1.5707 -1.2837,2.849 -2.861,2.849c-1.307,0 -2.4112,-0.8779 -2.7517,-2.0721l-31.3762,0l0,-1.554l31.3763,0c0.3406,-1.1942 1.4448,-2.0717 2.7516,-2.0717c1.5773,0 2.861,1.278 2.861,2.8488zm-1.5605,0.0002c0,-0.714 -0.5835,-1.295 -1.3005,-1.295c-0.717,0 -1.3005,0.5809 -1.3005,1.295c0,0.714 0.5835,1.2951 1.3005,1.2951c0.717,0 1.3005,-0.5811 1.3005,-1.2951z" clip-rule="evenodd" fill-rule="evenodd"/>
    <rect stroke="null" id="svg_25" fill="#FB7710" height="1.554" width="16.2967" y="69068.13997" x="63381.08765"/>
    <path stroke="null" id="svg_26" fill="#FB7710" d="m63379.18005,69068.91727c0,1.5708 -1.2834,2.8488 -2.8607,2.8488c-1.307,0 -2.4115,-0.8778 -2.752,-2.0722l-21.0886,0l0,-1.554l21.0888,0c0.3407,-1.1942 1.445,-2.0717 2.7518,-2.0717c1.5773,0 2.8607,1.278 2.8607,2.8491zm-1.5602,0c0,-0.714 -0.5838,-1.2951 -1.3005,-1.2951c-0.7108,0 -1.2891,0.5712 -1.2996,1.2762l0,0.0379c0.0104,0.7049 0.5888,1.2761 1.2996,1.2761c0.717,0 1.3005,-0.5811 1.3005,-1.2951z" clip-rule="evenodd" fill-rule="evenodd"/>
    <rect stroke="null" id="svg_27" fill="#FB7710" height="1.554" width="33.0007" y="69074.01037" x="63364.38595"/>
    <path stroke="null" id="svg_28" fill="#FB7710" d="m63362.47775,69074.78757c0,1.5708 -1.28359,2.8491 -2.86095,2.8491c-1.30697,0 -2.41145,-0.8779 -2.75196,-2.0725l-4.38609,0l0,-1.554l4.38627,0c0.34071,-1.194 1.44509,-2.0714 2.75178,-2.0714c1.57736,0 2.86095,1.278 2.86095,2.8488zm-1.56047,0.0001c0,-0.714 -0.58377,-1.295 -1.30048,-1.295c-0.71698,0 -1.30048,0.581 -1.30048,1.295c0,0.714 0.5835,1.2951 1.30048,1.2951c0.71699,0 1.30048,-0.5811 1.30048,-1.2951z" clip-rule="evenodd" fill-rule="evenodd"/>
    <rect stroke="null" id="svg_29" fill="#FB7710" height="1.554" width="19.8226" y="69079.88067" x="63377.56175"/>
    <path stroke="null" id="svg_30" fill="#FB7710" d="m63370.04195,69079.88087c0.3407,-1.1941 1.4448,-2.0715 2.7515,-2.0715c1.5774,0 2.861,1.278 2.861,2.8491c0,1.5708 -1.2834,2.8488 -2.861,2.8488c-1.3071,0 -2.4115,-0.8779 -2.7518,-2.0724l-17.5629,0l0,-1.554l17.5632,0zm1.451,0.7773c0,0.7138 0.5835,1.2951 1.3005,1.2951c0.717,0 1.3005,-0.5811 1.3005,-1.2951c0,-0.714 -0.5835,-1.295 -1.3005,-1.295c-0.717,0 -1.3005,0.5813 -1.3005,1.295z" clip-rule="evenodd" fill-rule="evenodd"/>
   </g>
  </g>
 </g>
</svg>