<svg width="65" height="64" viewBox="0 0 65 64" fill="none" xmlns="http://www.w3.org/2000/svg">
<g opacity="0.4">
<g opacity="0.26">
<path d="M23.75 30.25H25.5833V53.1667H23.75V30.25Z" fill="white"/>
<path d="M14.5835 30.25H16.4168V53.1667H14.5835V30.25Z" fill="white"/>
<path d="M19.1665 34.8333H20.9998V53.1666H19.1665V34.8333Z" fill="white"/>
<path d="M29.0462 34.8333H24.565V32.4909H27.9261V20.7778C27.9261 18.1938 25.916 16.0924 23.4444 16.0924H16.7222C14.2506 16.0924 12.2406 18.1938 12.2406 20.7778V32.4909H15.6017V34.8333H11.1205C10.5018 34.8333 10 34.3096 10 33.6619V20.7778C10 16.9019 13.0148 13.75 16.7222 13.75H23.4444C27.1518 13.75 30.1667 16.9019 30.1667 20.7778V33.6619C30.1667 34.3096 29.6649 34.8333 29.0462 34.8333Z" fill="white"/>
<path fill-rule="evenodd" clip-rule="evenodd" d="M14.5835 5.95812C14.5835 9.24374 17.0509 11.9167 20.0835 11.9167C23.1161 11.9167 25.5835 9.24374 25.5835 5.95812C25.5835 2.67293 23.1161 0 20.0835 0C17.0509 0 14.5835 2.67293 14.5835 5.95812ZM16.7834 5.95812C16.7834 3.98735 18.2639 2.38316 20.0835 2.38316C21.9031 2.38316 23.3836 3.98735 23.3836 5.95812C23.3836 7.92932 21.9031 9.53307 20.0835 9.53307C18.2639 9.53307 16.7834 7.92932 16.7834 5.95812Z" fill="white"/>
<path d="M19.1665 18.3333H20.9998V20.1666H19.1665V18.3333Z" fill="white"/>
<path d="M63.8213 6.41659H49.6783C49.0266 6.41659 48.5 6.00601 48.5 5.49975C48.5 4.99383 49.0266 4.58325 49.6783 4.58325H63.8213C64.473 4.58325 65 4.99383 65 5.49975C65 6.00601 64.473 6.41659 63.8213 6.41659Z" fill="white"/>
<path d="M40.9372 6.41659H34.0624C33.4301 6.41659 32.9165 6.00601 32.9165 5.49975C32.9165 4.99383 33.4301 4.58325 34.0624 4.58325H40.9372C41.5708 4.58325 42.0832 4.99383 42.0832 5.49975C42.0832 6.00601 41.5708 6.41659 40.9372 6.41659Z" fill="white"/>
<path fill-rule="evenodd" clip-rule="evenodd" d="M40.5559 9.16659H45.4449C46.1208 9.16659 46.6668 8.61918 46.6668 7.94466V3.05562C46.6668 2.3811 46.1208 1.83325 45.4449 1.83325H40.5559C39.88 1.83325 39.3335 2.3811 39.3335 3.05562V7.94466C39.3335 8.61918 39.88 9.16659 40.5559 9.16659ZM44.2225 6.72229H41.7782V4.27799H44.2225V6.72229Z" fill="white"/>
<path d="M63.8539 15.5833H61.5624C60.9288 15.5833 60.4165 15.1728 60.4165 14.6668C60.4165 14.1606 60.9288 13.75 61.5624 13.75H63.8539C64.4875 13.75 64.9998 14.1606 64.9998 14.6668C64.9998 15.1728 64.4875 15.5833 63.8539 15.5833Z" fill="white"/>
<path d="M51.9631 15.5833H34.037C33.4187 15.5833 32.9165 15.1728 32.9165 14.6668C32.9165 14.1606 33.4187 13.75 34.037 13.75H51.9631C52.5826 13.75 53.0832 14.1606 53.0832 14.6668C53.0832 15.1728 52.5826 15.5833 51.9631 15.5833Z" fill="white"/>
<path fill-rule="evenodd" clip-rule="evenodd" d="M52.4724 18.3333H57.361C58.0368 18.3333 58.5833 17.7855 58.5833 17.111V12.2219C58.5833 11.5474 58.0368 11 57.361 11H52.4724C51.7965 11 51.25 11.5474 51.25 12.2219V17.111C51.25 17.7855 51.7965 18.3333 52.4724 18.3333ZM56.139 15.8886H53.6943V13.4443H56.139V15.8886Z" fill="white"/>
<path d="M63.854 25.6666H52.396C51.7624 25.6666 51.25 25.2557 51.25 24.7499C51.25 24.2441 51.7624 23.8333 52.396 23.8333H63.854C64.4876 23.8333 65 24.2441 65 24.7499C65 25.2557 64.4876 25.6666 63.854 25.6666Z" fill="white"/>
<path d="M42.8164 25.6666H34.0166C33.4096 25.6666 32.9165 25.2557 32.9165 24.7499C32.9165 24.2441 33.4096 23.8333 34.0166 23.8333H42.8164C43.4247 23.8333 43.9165 24.2441 43.9165 24.7499C43.9165 25.2557 43.4247 25.6666 42.8164 25.6666Z" fill="white"/>
<path fill-rule="evenodd" clip-rule="evenodd" d="M43.3054 27.5001H48.1945C48.8703 27.5001 49.4168 26.9527 49.4168 26.2777V21.3891C49.4168 20.7142 48.8703 20.1667 48.1945 20.1667H43.3054C42.6296 20.1667 42.0835 20.7142 42.0835 21.3891V26.2777C42.0835 26.9527 42.6296 27.5001 43.3054 27.5001ZM46.9721 25.0558H44.5278V22.611H46.9721V25.0558Z" fill="white"/>
<path d="M63.8675 34.8333H46.8821C46.2559 34.8333 45.75 34.4234 45.75 33.9165C45.75 33.4096 46.2559 33 46.8821 33H63.8675C64.4937 33 65 33.4096 65 33.9165C65 34.4234 64.4937 34.8333 63.8675 34.8333Z" fill="white"/>
<path d="M37.3164 34.8333H34.0166C33.4095 34.8333 32.9165 34.4234 32.9165 33.9165C32.9165 33.4096 33.4095 33 34.0166 33H37.3164C37.9235 33 38.4165 33.4096 38.4165 33.9165C38.4165 34.4234 37.9235 34.8333 37.3164 34.8333Z" fill="white"/>
<path fill-rule="evenodd" clip-rule="evenodd" d="M37.8059 37.5833H42.6949C43.3708 37.5833 43.9168 37.0373 43.9168 36.3614V31.4724C43.9168 30.7965 43.3708 30.25 42.6949 30.25H37.8059C37.1313 30.25 36.5835 30.7965 36.5835 31.4724V36.3614C36.5835 37.0373 37.1313 37.5833 37.8059 37.5833ZM41.4725 35.139H39.0282V32.6947H41.4725V35.139Z" fill="white"/>
<path d="M63.7775 44.0001H58.8889C58.213 44.0001 57.6665 43.5905 57.6665 43.0836C57.6665 42.5767 58.213 42.1667 58.8889 42.1667H63.7775C64.4533 42.1667 64.9998 42.5767 64.9998 43.0836C64.9998 43.5905 64.4533 44.0001 63.7775 44.0001Z" fill="white"/>
<path d="M50.1039 44.0001H34.0625C33.4301 44.0001 32.9165 43.5905 32.9165 43.0836C32.9165 42.5767 33.4301 42.1667 34.0625 42.1667H50.1039C50.7375 42.1667 51.2498 42.5767 51.2498 43.0836C51.2498 43.5905 50.7375 44.0001 50.1039 44.0001Z" fill="white"/>
<path fill-rule="evenodd" clip-rule="evenodd" d="M49.7219 46.7501H54.611C55.2868 46.7501 55.8333 46.2036 55.8333 45.5277V40.6387C55.8333 39.9628 55.2868 39.4167 54.611 39.4167H49.7219C49.0461 39.4167 48.5 39.9628 48.5 40.6387V45.5277C48.5 46.2036 49.0461 46.7501 49.7219 46.7501ZM53.3886 44.3053H50.9443V41.861H53.3886V44.3053Z" fill="white"/>
</g>
<path d="M13.75 40.25H15.5833V63.1667H13.75V40.25Z" fill="white"/>
<path d="M4.5835 40.25H6.41683V63.1667H4.5835V40.25Z" fill="white"/>
<path d="M9.1665 44.8333H10.9998V63.1666H9.1665V44.8333Z" fill="white"/>
<path d="M19.0462 44.8333H14.565V42.4909H17.9261V30.7778C17.9261 28.1938 15.916 26.0924 13.4444 26.0924H6.72222C4.25062 26.0924 2.2406 28.1938 2.2406 30.7778V42.4909H5.60172V44.8333H1.12051C0.501787 44.8333 0 44.3096 0 43.6619V30.7778C0 26.9019 3.01482 23.75 6.72222 23.75H13.4444C17.1518 23.75 20.1667 26.9019 20.1667 30.7778V43.6619C20.1667 44.3096 19.6649 44.8333 19.0462 44.8333Z" fill="white"/>
<path fill-rule="evenodd" clip-rule="evenodd" d="M4.5835 15.9581C4.5835 19.2437 7.0509 21.9167 10.0835 21.9167C13.1161 21.9167 15.5835 19.2437 15.5835 15.9581C15.5835 12.6729 13.1161 10 10.0835 10C7.0509 10 4.5835 12.6729 4.5835 15.9581ZM6.78342 15.9581C6.78342 13.9874 8.26386 12.3832 10.0835 12.3832C11.9031 12.3832 13.3836 13.9874 13.3836 15.9581C13.3836 17.9293 11.9031 19.5331 10.0835 19.5331C8.26386 19.5331 6.78342 17.9293 6.78342 15.9581Z" fill="white"/>
<path d="M9.1665 28.3333H10.9998V30.1666H9.1665V28.3333Z" fill="white"/>
<path d="M53.8213 16.4166H39.6783C39.0266 16.4166 38.5 16.006 38.5 15.4998C38.5 14.9938 39.0266 14.5833 39.6783 14.5833H53.8213C54.473 14.5833 55 14.9938 55 15.4998C55 16.006 54.473 16.4166 53.8213 16.4166Z" fill="white"/>
<path d="M30.9372 16.4166H24.0624C23.4301 16.4166 22.9165 16.006 22.9165 15.4998C22.9165 14.9938 23.4301 14.5833 24.0624 14.5833H30.9372C31.5708 14.5833 32.0832 14.9938 32.0832 15.4998C32.0832 16.006 31.5708 16.4166 30.9372 16.4166Z" fill="white"/>
<path fill-rule="evenodd" clip-rule="evenodd" d="M30.5559 19.1666H35.4449C36.1208 19.1666 36.6668 18.6192 36.6668 17.9447V13.0556C36.6668 12.3811 36.1208 11.8333 35.4449 11.8333H30.5559C29.88 11.8333 29.3335 12.3811 29.3335 13.0556V17.9447C29.3335 18.6192 29.88 19.1666 30.5559 19.1666ZM34.2225 16.7223H31.7782V14.278H34.2225V16.7223Z" fill="white"/>
<path d="M53.8539 25.5833H51.5624C50.9288 25.5833 50.4165 25.1728 50.4165 24.6668C50.4165 24.1606 50.9288 23.75 51.5624 23.75H53.8539C54.4875 23.75 54.9998 24.1606 54.9998 24.6668C54.9998 25.1728 54.4875 25.5833 53.8539 25.5833Z" fill="white"/>
<path d="M41.9631 25.5833H24.037C23.4187 25.5833 22.9165 25.1728 22.9165 24.6668C22.9165 24.1606 23.4187 23.75 24.037 23.75H41.9631C42.5826 23.75 43.0832 24.1606 43.0832 24.6668C43.0832 25.1728 42.5826 25.5833 41.9631 25.5833Z" fill="white"/>
<path fill-rule="evenodd" clip-rule="evenodd" d="M42.4724 28.3333H47.361C48.0368 28.3333 48.5833 27.7855 48.5833 27.111V22.2219C48.5833 21.5474 48.0368 21 47.361 21H42.4724C41.7965 21 41.25 21.5474 41.25 22.2219V27.111C41.25 27.7855 41.7965 28.3333 42.4724 28.3333ZM46.139 25.8886H43.6943V23.4443H46.139V25.8886Z" fill="white"/>
<path d="M53.854 35.6666H42.396C41.7624 35.6666 41.25 35.2557 41.25 34.7499C41.25 34.2441 41.7624 33.8333 42.396 33.8333H53.854C54.4876 33.8333 55 34.2441 55 34.7499C55 35.2557 54.4876 35.6666 53.854 35.6666Z" fill="white"/>
<path d="M32.8164 35.6666H24.0166C23.4096 35.6666 22.9165 35.2557 22.9165 34.7499C22.9165 34.2441 23.4096 33.8333 24.0166 33.8333H32.8164C33.4247 33.8333 33.9165 34.2441 33.9165 34.7499C33.9165 35.2557 33.4247 35.6666 32.8164 35.6666Z" fill="white"/>
<path fill-rule="evenodd" clip-rule="evenodd" d="M33.3054 37.5001H38.1945C38.8703 37.5001 39.4168 36.9527 39.4168 36.2777V31.3891C39.4168 30.7142 38.8703 30.1667 38.1945 30.1667H33.3054C32.6296 30.1667 32.0835 30.7142 32.0835 31.3891V36.2777C32.0835 36.9527 32.6296 37.5001 33.3054 37.5001ZM36.9721 35.0558H34.5278V32.611H36.9721V35.0558Z" fill="white"/>
<path d="M53.8675 44.8333H36.8821C36.2559 44.8333 35.75 44.4234 35.75 43.9165C35.75 43.4096 36.2559 43 36.8821 43H53.8675C54.4937 43 55 43.4096 55 43.9165C55 44.4234 54.4937 44.8333 53.8675 44.8333Z" fill="white"/>
<path d="M27.3164 44.8333H24.0166C23.4095 44.8333 22.9165 44.4234 22.9165 43.9165C22.9165 43.4096 23.4095 43 24.0166 43H27.3164C27.9235 43 28.4165 43.4096 28.4165 43.9165C28.4165 44.4234 27.9235 44.8333 27.3164 44.8333Z" fill="white"/>
<path fill-rule="evenodd" clip-rule="evenodd" d="M27.8059 47.5833H32.6949C33.3708 47.5833 33.9168 47.0373 33.9168 46.3614V41.4724C33.9168 40.7965 33.3708 40.25 32.6949 40.25H27.8059C27.1313 40.25 26.5835 40.7965 26.5835 41.4724V46.3614C26.5835 47.0373 27.1313 47.5833 27.8059 47.5833ZM31.4725 45.139H29.0282V42.6947H31.4725V45.139Z" fill="white"/>
<path d="M53.7775 54.0001H48.8889C48.213 54.0001 47.6665 53.5905 47.6665 53.0836C47.6665 52.5767 48.213 52.1667 48.8889 52.1667H53.7775C54.4533 52.1667 54.9998 52.5767 54.9998 53.0836C54.9998 53.5905 54.4533 54.0001 53.7775 54.0001Z" fill="white"/>
<path d="M40.1039 54.0001H24.0625C23.4301 54.0001 22.9165 53.5905 22.9165 53.0836C22.9165 52.5767 23.4301 52.1667 24.0625 52.1667H40.1039C40.7375 52.1667 41.2498 52.5767 41.2498 53.0836C41.2498 53.5905 40.7375 54.0001 40.1039 54.0001Z" fill="white"/>
<path fill-rule="evenodd" clip-rule="evenodd" d="M39.7219 56.7501H44.611C45.2868 56.7501 45.8333 56.2036 45.8333 55.5277V50.6387C45.8333 49.9628 45.2868 49.4167 44.611 49.4167H39.7219C39.0461 49.4167 38.5 49.9628 38.5 50.6387V55.5277C38.5 56.2036 39.0461 56.7501 39.7219 56.7501ZM43.3886 54.3053H40.9443V51.861H43.3886V54.3053Z" fill="white"/>
</g>
</svg>
